<svg width="470" height="200" viewBox="0 0 470 200" fill="none" xmlns="http://www.w3.org/2000/svg">
<mask id="mask0" mask-type="alpha" maskUnits="userSpaceOnUse" x="0" y="0" width="470" height="200">
<rect width="470" height="200" rx="5" fill="#2A2A2A"/>
</mask>
<g mask="url(#mask0)">
<line y1="-0.5" x2="510.784" y2="-0.5" transform="matrix(0.920155 0.391555 -0.920155 0.391555 0 0)" stroke="#898989" stroke-dasharray="10 10"/>
<line y1="-0.5" x2="510.784" y2="-0.5" transform="matrix(-0.920155 0.391555 0.920155 0.391555 470 0)" stroke="#898989" stroke-dasharray="10 10"/>
<rect x="203" y="74" width="64" height="51" rx="5" fill="#2A2A2A"/>
<path d="M254.5 82H215.5C212.969 82 211 84.0625 211 86.5V113.5C211 116.031 212.969 118 215.5 118H254.5C256.938 118 259 116.031 259 113.5V86.5C259 84.0625 256.938 82 254.5 82ZM256 113.5C256 114.344 255.25 115 254.5 115H215.5C214.656 115 214 114.344 214 113.5V86.5C214 85.75 214.656 85 215.5 85H254.5C255.25 85 256 85.75 256 86.5V113.5ZM221.5 97.75C224.312 97.75 226.75 95.4062 226.75 92.5C226.75 89.6875 224.312 87.25 221.5 87.25C218.594 87.25 216.25 89.6875 216.25 92.5C216.25 95.4062 218.594 97.75 221.5 97.75ZM221.5 90.25C222.719 90.25 223.75 91.2812 223.75 92.5C223.75 93.8125 222.719 94.75 221.5 94.75C220.188 94.75 219.25 93.8125 219.25 92.5C219.25 91.2812 220.188 90.25 221.5 90.25ZM240.906 92.5L232 101.406L229 98.5C228.156 97.5625 226.75 97.5625 225.906 98.5L217.656 106.75C217.281 107.031 217 107.781 217 108.25V110.875C217 111.531 217.469 112 218.125 112H251.875C252.438 112 253 111.531 253 110.875V102.25C253 101.688 252.719 101.125 252.25 100.75L244 92.5C243.156 91.5625 241.75 91.5625 240.906 92.5ZM250 109H220V108.625L227.5 101.125L232 105.625L242.5 95.125L250 102.625V109Z" fill="#898989"/>
<path d="M240.906 92.5L241.543 93.1364L241.559 93.1197L241.575 93.1021L240.906 92.5ZM232 101.406L231.374 102.053L232.01 102.669L232.636 102.043L232 101.406ZM229 98.5L228.331 99.1021L228.352 99.125L228.374 99.1464L229 98.5ZM225.906 98.5L226.543 99.1364L226.559 99.1197L226.575 99.1021L225.906 98.5ZM217.656 106.75L218.196 107.47L218.247 107.432L218.293 107.386L217.656 106.75ZM252.25 100.75L251.614 101.386L251.649 101.422L251.688 101.453L252.25 100.75ZM244 92.5L243.331 93.1021L243.347 93.1197L243.364 93.1364L244 92.5ZM250 109V109.9H250.9V109H250ZM220 109H219.1V109.9H220V109ZM220 108.625L219.364 107.989L219.1 108.252V108.625H220ZM227.5 101.125L228.136 100.489L227.5 99.8522L226.864 100.489L227.5 101.125ZM232 105.625L231.364 106.261L232 106.898L232.636 106.261L232 105.625ZM242.5 95.125L243.136 94.4886L242.5 93.8522L241.864 94.4886L242.5 95.125ZM250 102.625H250.9V102.252L250.636 101.989L250 102.625ZM254.5 81.1H215.5V82.9H254.5V81.1ZM215.5 81.1C212.46 81.1 210.1 83.5777 210.1 86.5H211.9C211.9 84.5473 213.478 82.9 215.5 82.9V81.1ZM210.1 86.5V113.5H211.9V86.5H210.1ZM210.1 113.5C210.1 116.528 212.472 118.9 215.5 118.9V117.1C213.466 117.1 211.9 115.534 211.9 113.5H210.1ZM215.5 118.9H254.5V117.1H215.5V118.9ZM254.5 118.9C257.422 118.9 259.9 116.54 259.9 113.5H258.1C258.1 115.522 256.453 117.1 254.5 117.1V118.9ZM259.9 113.5V86.5H258.1V113.5H259.9ZM259.9 86.5C259.9 83.5654 257.435 81.1 254.5 81.1V82.9C256.44 82.9 258.1 84.5596 258.1 86.5H259.9ZM255.1 113.5C255.1 113.811 254.789 114.1 254.5 114.1V115.9C255.711 115.9 256.9 114.877 256.9 113.5H255.1ZM254.5 114.1H215.5V115.9H254.5V114.1ZM215.5 114.1C215.153 114.1 214.9 113.847 214.9 113.5H213.1C213.1 114.841 214.159 115.9 215.5 115.9V114.1ZM214.9 113.5V86.5H213.1V113.5H214.9ZM214.9 86.5C214.9 86.2106 215.189 85.9 215.5 85.9V84.1C214.123 84.1 213.1 85.2894 213.1 86.5H214.9ZM215.5 85.9H254.5V84.1H215.5V85.9ZM254.5 85.9C254.582 85.9 254.74 85.9502 254.895 86.1051C255.05 86.2601 255.1 86.4177 255.1 86.5H256.9C256.9 85.8323 256.575 85.2399 256.168 84.8324C255.76 84.4248 255.168 84.1 254.5 84.1V85.9ZM255.1 86.5V113.5H256.9V86.5H255.1ZM221.5 98.65C224.799 98.65 227.65 95.9137 227.65 92.5H225.85C225.85 94.8988 223.826 96.85 221.5 96.85V98.65ZM227.65 92.5C227.65 89.1904 224.81 86.35 221.5 86.35V88.15C223.815 88.15 225.85 90.1846 225.85 92.5H227.65ZM221.5 86.35C218.086 86.35 215.35 89.2009 215.35 92.5H217.15C217.15 90.1741 219.101 88.15 221.5 88.15V86.35ZM215.35 92.5C215.35 95.9033 218.097 98.65 221.5 98.65V96.85C219.091 96.85 217.15 94.9092 217.15 92.5H215.35ZM221.5 91.15C222.222 91.15 222.85 91.7783 222.85 92.5H224.65C224.65 90.7842 223.216 89.35 221.5 89.35V91.15ZM222.85 92.5C222.85 93.291 222.246 93.85 221.5 93.85V95.65C223.191 95.65 224.65 94.334 224.65 92.5H222.85ZM221.5 93.85C220.685 93.85 220.15 93.3154 220.15 92.5H218.35C218.35 94.3096 219.69 95.65 221.5 95.65V93.85ZM220.15 92.5C220.15 91.7535 220.709 91.15 221.5 91.15V89.35C219.666 89.35 218.35 90.809 218.35 92.5H220.15ZM240.27 91.8636L231.364 100.77L232.636 102.043L241.543 93.1364L240.27 91.8636ZM232.626 100.76L229.626 97.8536L228.374 99.1464L231.374 102.053L232.626 100.76ZM229.669 97.8979C228.468 96.5632 226.439 96.5632 225.237 97.8979L226.575 99.1021C227.061 98.5618 227.845 98.5618 228.331 99.1021L229.669 97.8979ZM225.27 97.8636L217.02 106.114L218.293 107.386L226.543 99.1364L225.27 97.8636ZM217.116 106.03C216.742 106.311 216.5 106.741 216.357 107.084C216.208 107.441 216.1 107.865 216.1 108.25H217.9C217.9 108.166 217.933 107.981 218.018 107.776C218.058 107.68 218.101 107.6 218.141 107.541C218.184 107.477 218.207 107.462 218.196 107.47L217.116 106.03ZM216.1 108.25V110.875H217.9V108.25H216.1ZM216.1 110.875C216.1 112.028 216.972 112.9 218.125 112.9V111.1C218.017 111.1 217.971 111.065 217.953 111.047C217.935 111.029 217.9 110.983 217.9 110.875H216.1ZM218.125 112.9H251.875V111.1H218.125V112.9ZM251.875 112.9C252.885 112.9 253.9 112.076 253.9 110.875H252.1C252.1 110.933 252.078 110.984 252.03 111.029C251.976 111.081 251.912 111.1 251.875 111.1V112.9ZM253.9 110.875V102.25H252.1V110.875H253.9ZM253.9 102.25C253.9 101.394 253.478 100.58 252.812 100.047L251.688 101.453C251.96 101.67 252.1 101.981 252.1 102.25H253.9ZM252.886 100.114L244.636 91.8636L243.364 93.1364L251.614 101.386L252.886 100.114ZM244.669 91.8979C243.468 90.5632 241.439 90.5632 240.237 91.8979L241.575 93.1021C242.061 92.5618 242.845 92.5618 243.331 93.1021L244.669 91.8979ZM250 108.1H220V109.9H250V108.1ZM220.9 109V108.625H219.1V109H220.9ZM220.636 109.261L228.136 101.761L226.864 100.489L219.364 107.989L220.636 109.261ZM226.864 101.761L231.364 106.261L232.636 104.989L228.136 100.489L226.864 101.761ZM232.636 106.261L243.136 95.7614L241.864 94.4886L231.364 104.989L232.636 106.261ZM241.864 95.7614L249.364 103.261L250.636 101.989L243.136 94.4886L241.864 95.7614ZM249.1 102.625V109H250.9V102.625H249.1Z" fill="#2A2A2A"/>
</g>
</svg>
