<svg width="84" height="26" viewBox="0 0 84 26" fill="none" xmlns="http://www.w3.org/2000/svg">
<path d="M0 0H1.23947V25.9999H0V0Z" fill="#00F6B4"/>
<path d="M13.0145 24.7419V25.9999H0V24.7419H13.0145Z" fill="#00F6B4"/>
<path fill-rule="evenodd" clip-rule="evenodd" d="M68.171 0H77.2604C80.9113 0 83.871 3.00402 83.871 6.70966V9.43546C83.871 13.1411 80.9113 16.1451 77.2604 16.1451H69.4103V26H68.1708L68.171 0ZM69.4105 1.25806H77.2604C80.2268 1.25806 82.6315 3.69883 82.6315 6.70966V9.43546C82.6315 12.4463 80.2268 14.8871 77.2604 14.8871H69.4105V1.25806Z" fill="#00F6B4"/>
<path fill-rule="evenodd" clip-rule="evenodd" d="M17.0399 5.69588C15.3503 7.9783 14.6672 10.7805 14.6672 12.7903C14.6672 14.8034 15.3263 17.5803 17.0038 19.8752C18.6607 22.142 21.3268 23.9644 25.4351 24.1133C28.9464 24.2406 31.8747 22.3883 34.1476 19.927C36.4207 17.4655 37.9621 14.4716 38.6761 12.5333C38.686 12.5066 38.6973 12.4805 38.7101 12.4552L39.3534 12.7903C38.7101 12.4552 38.7101 12.4552 38.7101 12.4552L38.7107 12.454L38.7119 12.4517L38.7159 12.4438C38.7193 12.4372 38.7241 12.4277 38.7304 12.4156C38.743 12.3912 38.7613 12.356 38.7853 12.3106C38.8333 12.2198 38.9038 12.0882 38.996 11.9218C39.1803 11.5889 39.4512 11.1159 39.8011 10.5495C40.4998 9.41809 41.5178 7.90604 42.7931 6.39036C45.3068 3.40275 48.9798 0.209695 53.2974 0.209695C57.5123 0.209695 60.6276 2.10825 62.674 4.63137C64.7033 7.13348 65.6921 10.2597 65.6921 12.7903C65.6921 15.2998 64.8195 18.4766 62.8397 21.0404C60.8403 23.6296 57.7182 25.5806 53.2974 25.5806C49.7319 25.5806 46.775 24.0153 44.5493 22.1047C42.3287 20.1984 40.7921 17.9129 40.0464 16.3622C39.8712 15.998 40.0201 15.5586 40.379 15.3808C40.7378 15.203 41.1707 15.3542 41.3459 15.7184C42.0118 17.1032 43.4293 19.2209 45.4831 20.984C47.5318 22.7427 50.1698 24.1129 53.2974 24.1129C57.2431 24.1129 59.9568 22.3945 61.7016 20.135C63.4661 17.85 64.2461 14.9986 64.2461 12.7903C64.2461 10.6032 63.3757 7.80604 61.5575 5.56421C59.7564 3.34339 57.0358 1.67743 53.2974 1.67743C49.6617 1.67743 46.3628 4.40775 43.8927 7.34352C42.6761 8.78952 41.6994 10.2392 41.0263 11.329C40.6902 11.8732 40.431 12.3258 40.2566 12.6408C40.1694 12.7983 40.1035 12.9212 40.0598 13.004C40.0482 13.0259 40.0382 13.0451 40.0297 13.0613C40.024 13.0722 40.0191 13.0818 40.0148 13.09C39.2419 15.171 37.6156 18.3178 35.2026 20.9307C32.7729 23.5618 29.4695 25.7283 25.3835 25.5801C20.8155 25.4145 17.749 23.358 15.8425 20.7497C13.9565 18.1696 13.2212 15.0756 13.2212 12.7903C13.2212 10.5017 13.9841 7.38057 15.8838 4.81422C17.8059 2.21765 20.8807 0.209695 25.4093 0.209695C30.3558 0.209695 33.7502 3.00578 35.6969 5.64033C35.9365 5.96457 35.8718 6.42456 35.5523 6.66774C35.2329 6.91093 34.7797 6.84521 34.5401 6.52097C32.7684 4.12327 29.7588 1.67743 25.4093 1.67743C21.3649 1.67743 18.7071 3.44366 17.0399 5.69588ZM35.8536 7.04261C36.1859 6.81779 36.6348 6.90891 36.8563 7.24615C37.4791 8.19437 37.4815 8.19811 38.4122 9.66767C38.6281 10.0086 38.5309 10.4627 38.195 10.6818C37.8591 10.901 37.4118 10.8023 37.1958 10.4614C36.6326 9.57206 36.4119 9.22363 36.1878 8.8775C36.0424 8.65307 35.8956 8.42961 35.6531 8.0603C35.4316 7.72307 35.5214 7.26743 35.8536 7.04261Z" fill="#00F6B4"/>
</svg>
