<?xml version="1.0" standalone="no"?>
<!DOCTYPE svg PUBLIC "-//W3C//DTD SVG 1.1//EN" "http://www.w3.org/Graphics/SVG/1.1/DTD/svg11.dtd">
<svg xmlns="http://www.w3.org/2000/svg">
<metadata>Generated by Fontastic.me</metadata>
<defs>
<font id="untitled-font-1" horiz-adv-x="512">
<font-face font-family="untitled-font-1" units-per-em="512" ascent="480" descent="-32"/>
<missing-glyph horiz-adv-x="512" />

<glyph glyph-name="bars" unicode="&#97;" d="M491 396c6 0 13 6 13 14l0 36c0 7-7 13-13 13l-477 0c-8 0-14-6-14-13l0-36c0-8 6-14 14-14z m0-180c6 0 13 6 13 14l0 36c0 7-7 13-13 13l-477 0c-8 0-14-6-14-13l0-36c0-8 6-14 14-14z m0-180c6 0 13 6 13 14l0 36c0 7-7 13-13 13l-477 0c-8 0-14-6-14-13l0-36c0-8 6-14 14-14z"/>
<glyph glyph-name="bell" unicode="&#98;" d="M266 20c33 0 60 27 60 61l-121 0c0-34 27-61 61-61z m204 141c-18 20-53 50-53 147 0 73-51 132-122 147l0 20c0 16-13 30-29 30-17 0-30-14-30-30l0-20c-70-15-121-74-121-147 0-97-36-127-54-147-5-5-8-13-7-20 0-16 11-30 30-30l363 0c19 0 30 14 31 30 0 7-3 15-8 20z"/>
<glyph glyph-name="close" unicode="&#99;" d="M332 256l155 153c8 8 8 24 0 33l-36 35c-9 9-24 9-33 0l-153-154-154 154c-9 9-24 9-33 0l-36-35c-8-9-8-25 0-33l155-153-155-154c-8-9-8-25 0-33l36-36c9-8 24-8 33 0l154 154 153-154c9-8 24-8 33 0l36 36c8 8 8 24 0 33z"/>
<glyph glyph-name="discover" unicode="&#100;" d="M333 251c8 0 15 7 15 15 0 9-7 16-15 16-9 0-15-7-15-16 0-8 6-15 15-15z m-242 24c14 13 34 22 59 25 10 1 20 1 29 1 14 1 27 1 40 4 25 6 47 23 59 46 13 23 15 52 7 77l-4 9c-8 1-16 2-25 2-89 0-161-73-165-164z m165-178c50 0 94 23 124 59-37-10-79-15-124-15-45 0-87 5-124 15 30-36 74-59 124-59z m256 185c0 32-28 61-80 82-2 0-4 1-6 2 7-13 13-27 17-41 25-13 39-29 39-43 0-13-12-26-33-39-8-4-17-9-28-13-2-1-3-1-5-2 3 13 5 26 5 40 0 72-44 134-105 159 7-30 3-64-11-91-17-31-47-54-80-62-15-3-30-3-45-4-9 0-18 0-27-1-11-1-38-6-47-25-3-6-4-12-5-18-3 1-7 3-10 4-11 4-20 9-28 13-21 13-33 26-33 39 0 14 14 30 39 43 4 14 10 28 17 41-56-21-86-50-86-84 0-13 5-25 14-37 1-2 3-4 5-6 14-15 34-28 61-38 31-12 69-21 110-25 3-1 28-4 66-4 39 0 63 3 66 4 41 4 79 13 110 25 27 10 47 23 61 38 2 2 4 4 5 6 9 12 14 24 14 37z m-179 31c24 0 45-21 45-47 0-26-21-47-45-47-25 0-45 21-45 47 0 26 20 47 45 47z"/>
<glyph glyph-name="ellipsis-v" unicode="&#101;" d="M256 314c-32 0-58-27-58-58 0-32 26-58 58-58 31 0 58 26 58 58 0 31-27 58-58 58z m-58 124c0-32 26-57 58-57 31 0 58 25 58 57 0 32-27 58-58 58-32 0-58-26-58-58z m0-364c0-33 26-58 58-58 31 0 58 25 58 58 0 31-27 57-58 57-32 0-58-26-58-57z"/>
<glyph glyph-name="envelope" unicode="&#102;" d="M464 441l-416 0c-27 0-48-22-48-48l0-288c0-27 21-48 48-48l416 0c26 0 48 21 48 48l0 288c0 26-22 48-48 48z m-416-32l416 0c8 0 16-8 16-16l0-42c-22-18-54-44-151-121-17-14-50-46-73-45-24-1-57 31-74 45-97 77-129 103-150 121l0 42c0 8 7 16 16 16z m416-320l-416 0c-9 0-16 7-16 16l0 205c22-19 58-48 130-105 21-17 57-53 94-52 36-1 72 35 93 52 72 57 108 86 131 105l0-205c0-9-8-16-16-16z"/>
<glyph glyph-name="expertise" unicode="&#103;" d="M489 465c-1 6-6 11-12 12-30 7-53 7-77 7-96 0-154-53-197-120l-99 0c-15-1-33-11-40-25l-46-93c-1-3-2-7-2-10 0-13 9-22 23-22l96 0-21-22c-11-10-12-30 0-42l48-48c11-10 30-12 42 0l21 21 0-97c1-13 10-22 24-22 2 0 6 1 9 2l93 46c14 7 24 25 24 40l0 99c69 43 120 101 120 197 1 24 1 47-6 77z m-113-139c-22 0-37 16-37 38 0 21 15 37 37 37 21 0 38-16 38-37 0-22-17-38-38-38z"/>
<glyph glyph-name="facebook-f" unicode="&#104;" d="M375 224l14 92-89 0 0 60c0 26 12 50 52 50l41 0 0 79c0 0-37 7-72 7-73 0-121-45-121-125l0-71-82 0 0-92 82 0 0-224 100 0 0 224z"/>
<glyph glyph-name="genre" unicode="&#105;" d="M256 491c-142 0-256-115-256-256l0-48c0-11 7-24 17-29l15-7c2-60 51-108 112-108l24 0c13 0 24 10 24 24l0 176c0 13-11 24-24 24l-24 0c-32 0-60-13-80-34l0 2c0 105 86 192 192 192 105 0 192-87 192-192l0-2c-21 21-49 34-80 34l-24 0c-14 0-24-11-24-24l0-176c0-14 10-24 24-24l24 0c60 0 109 48 111 108l15 7c10 5 18 18 18 29l0 48c0 141-115 256-256 256z"/>
<glyph glyph-name="genre-i" unicode="&#106;" d="M256 467c-142 0-256-115-256-256l0-48c0-11 7-24 17-29l15-7c2-60 51-108 112-108l24 0c13 0 24 10 24 24l0 176c0 13-11 24-24 24l-24 0c-32 0-60-13-80-34l0 2c0 105 86 192 192 192 105 0 192-87 192-192l0-2c-21 21-49 34-80 34l-24 0c-14 0-24-11-24-24l0-176c0-14 10-24 24-24l24 0c60 0 109 48 111 108l15 7c10 5 18 18 18 29l0 48c0 141-115 256-256 256z"/>
<glyph glyph-name="heart" unicode="&#107;" d="M461 451c-54 46-138 39-190-14-53 53-136 60-191 14-71-59-60-156-9-208l164-169c10-9 22-15 36-15 13 0 25 6 35 15l166 169c49 52 60 149-11 208z m-22-176l-165-169c-2-2-4-2-7 0l-164 169c-35 35-42 101 6 141 37 31 93 26 129-9l33-34 33 34c35 35 91 40 128 10 48-41 41-107 7-142z"/>
<glyph glyph-name="hub" unicode="&#108;" d="M266 304c-23-22-38-54-38-90 0-27 9-53 24-73l-46-47c-5 1-9 2-13 2-11 0-20-4-28-11-7-7-11-17-11-27 0-10 4-20 11-27 8-7 17-11 28-11 9 0 19 3 26 11 8 7 11 17 11 27 0 4-1 8-1 11l47 48c21-16 47-26 75-26 68 0 123 55 123 123 0 62-45 113-104 123l0 58c17 7 26 22 26 40 0 26-19 46-44 46-25 0-44-20-44-46 0-18 10-33 27-40l0-58c-15-2-29-6-41-13-26 20-111 81-160 119 2 4 2 8 2 12 0 28-22 50-50 50-27 0-49-22-49-50 0-27 22-49 49-49 10 0 18 3 26 7z m85-155c-36 0-66 29-66 65 0 36 30 66 66 66 37 0 65-30 65-66 0-36-28-65-65-65z"/>
<glyph glyph-name="home" unicode="&#109;" d="M256 369l-193-170c-2-2-4-2-5-4l0-162c0-8 7-14 14-14l113 0c7 0 15 6 15 14l0 113c0 7 6 14 14 14l84 0c7 0 14-7 14-14l0-113c0-8 7-14 15-14l113 0c7 0 14 6 14 14l0 162c-2 2-4 2-6 4z m249-108l-226 200c-5 5-16 10-23 10-8 0-19-5-24-10l-226-200c-2-1-5-7-5-10 0-3 2-7 4-9l19-21c3-3 7-5 11-5 2 0 7 1 9 4l202 178c2 2 6 4 10 4 3 0 7-2 9-4l202-178c3-3 7-4 10-4 3 0 8 2 10 5l19 21c2 2 4 6 4 9 0 3-3 9-5 10z"/>
<glyph glyph-name="twitter" unicode="&#110;" d="M459 360c20 15 38 33 52 54-18-8-39-14-60-16 22 13 38 33 46 58-20-12-43-21-66-26-20 21-47 33-77 33-58 0-105-47-105-105 0-8 1-16 3-24-87 5-165 47-217 110-9-15-14-33-14-53 0-36 18-68 47-87-17 1-34 5-48 13l0-1c0-51 36-93 84-103-8-2-18-4-27-4-7 0-13 1-20 2 13-42 52-72 98-73-36-28-81-45-130-45-9 0-17 1-25 2 46-30 101-47 161-47 193 0 298 159 298 298 0 5 0 9 0 14z"/>
<glyph glyph-name="share-alt" unicode="&#111;" d="M384 192c-26 0-49-10-67-27l-98 62c6 18 6 39 0 57l98 62c18-16 41-26 67-26 53 0 96 43 96 96 0 53-43 96-96 96-53 0-96-43-96-96 0-10 1-20 4-29l-98-62c-18 17-41 27-66 27-53 0-96-43-96-96 0-53 43-96 96-96 25 0 48 10 66 26l98-62c-3-9-4-19-4-28 0-53 43-96 96-96 53 0 96 43 96 96 0 53-43 96-96 96z m0 272c26 0 48-22 48-48 0-27-22-48-48-48-27 0-48 21-48 48 0 26 21 48 48 48z m-256-256c-27 0-48 21-48 48 0 26 21 48 48 48 26 0 48-22 48-48 0-27-22-48-48-48z m256-160c-27 0-48 21-48 48 0 26 21 48 48 48 26 0 48-22 48-48 0-27-22-48-48-48z"/>
<glyph glyph-name="sort-down" unicode="&#112;" d="M66 410c-36 0-53-42-28-66l191-190c14-16 38-16 54 0l191 190c24 24 6 66-28 66z"/>
<glyph glyph-name="share" unicode="&#113;" d="M497 246l-168-168c-7-7-16-9-26-5-10 4-15 11-15 22l0 96-136 0c-7 0-12 2-17 7-5 5-7 10-7 17l0 96c0 7 2 12 7 17 5 5 10 7 17 7l136 0 0 96c0 11 5 18 15 22 10 4 19 2 26-5l168-168c5-5 7-10 7-17 0-7-2-12-7-17z m-305-163c0-8-4-12-12-12l-84 0c-27 0-49 9-68 28-19 19-28 41-28 68l0 192c0 27 9 49 28 68 19 19 41 28 68 28l84 0c8 0 12-4 12-12l0-40c0-8-4-12-12-12l-84 0c-9 0-16-3-23-10-6-6-9-13-9-22l0-192c0-9 3-16 9-23 7-6 14-9 23-9l84 0c8 0 12-4 12-12z"/>
<glyph glyph-name="search" unicode="&#114;" d="M490 54l-112 112c-3 2-6 4-9 4l-12 0c29 33 48 78 48 126 0 106-88 193-194 193-106 0-193-87-193-193 0-107 87-193 193-193 49 0 92 17 127 46l0-12c0-3 1-5 3-8l112-113c5-4 12-4 16 0l21 22c5 4 5 11 0 16z m-279 93c-82 0-148 66-148 149 0 82 66 149 148 149 82 0 149-67 149-149 0-83-67-149-149-149z"/>
<glyph glyph-name="rocket-launch" unicode="&#115;" d="M368 423c-31 0-56-25-56-56 0-30 25-56 56-56 30 0 56 26 56 56 0 31-26 56-56 56z m0-80c-14 0-24 11-24 24 0 14 10 24 24 24 13 0 24-10 24-24 0-13-11-24-24-24z m137 149c-2 6-7 11-13 13-32 7-57 7-82 7-103 0-165-56-211-128l-104 0c-17 0-36-12-43-27l-50-99c-1-3-2-7-2-10 0-14 10-24 24-24l104 0c53 0 96-43 96-96l0-104c0-14 10-24 24-24 3 0 8 1 10 2l99 49c15 8 27 27 27 43l0 105c72 46 127 108 127 211 1 25 1 50-6 82z m-468-236l43 87c2 3 10 9 15 9l85 0c-14-29-32-64-48-96l0-1c-1 0-71 1-95 1z m315-162c0-4-6-12-9-14l-87-44c0 24-1 95-1 96l1 0c32 16 67 34 95 48l1 0z m-103 71c-11 36-48 73-84 84 52 104 100 231 245 231 21 0 41 0 65-5 5-24 5-44 4-65 0-145-126-194-230-245z m-147 27c-48 0-100-40-102-160l0-32 32 0c171 3 184 115 133 166-15 15-38 26-63 26z m53-110c-13-31-58-49-124-50 1 3-1 127 71 127 15 0 31-6 41-16 13-12 21-38 12-61z m350 410l10 2 0 1 0 0z m-13 13l3 10 0 0-1 0z m-293-121l0-11 6 0 3 5z m-147-27l10-5 0 0 0 0z m-50-99l-10 5 0-1 0-1z m256-256l-5 10 0 0z m99 49l5-10 0 1 0 0z m27 148l-6 9-5-3 0-6z m127 211l-11 0 0 0 0 0z m-474-154l-10 5-7-16 17 0z m43 87l-9 6 0-1-1 0z m100 9l10-5 7 16-17 0z m-48-96l-10 5-1-2 0-3z m0-1l0-11 11 0 0 11z m211-175l5-10 0 1 1 0z m-87-44l-11 0 0-17 16 7z m-1 96l0 11-11 0 0-11z m1 0l0-11 3 0 2 1z m95 48l0 11-3 0-2-1z m1 0l11 0 0 11-11 0z m-103-15l-10-3 3-12 12 5z m-84 84l-10 5-5-12 12-3z m310 226l10 2-1 7-7 1z m4-65l-11 1 0-1 0 0z m-479-378l-11 0 0 0 0 0z m0-32l-11 0 0-11 11 0z m32 0l0-11 0 0 0 0z m123 82l10-4 0 0 0 0z m-124-50l-10 3-5-14 15 0z m112 111l-8-8 1 0 0 0z m225 291c-37 0-67-30-67-67l22 0c0 25 20 45 45 45z m-67-67c0-36 30-67 67-67l0 22c-25 0-45 21-45 45z m67-67c36 0 67 31 67 67l-22 0c0-24-21-45-45-45z m67 67c0 37-31 67-67 67l0-22c24 0 45-20 45-45z m-67-13c-8 0-13 6-13 13l-22 0c0-19 15-35 35-35z m-13 13c0 8 5 13 13 13l0 22c-20 0-35-15-35-35z m13 13c7 0 13-5 13-13l22 0c0 20-16 35-35 35z m13-13c0-7-6-13-13-13l0-22c19 0 35 16 35 35z m134 128c-3 10-10 17-20 20l-6-20c2-1 5-4 6-6z m-21 20c-33 8-59 8-84 8l0-22c25 0 49 0 80-6z m-84 8c-108 0-173-60-220-133l18-12c45 71 104 123 202 123z m-211-128l-104 0 0-22 104 0z m-104 0c-11 0-22-4-31-10-9-6-17-14-22-23l20-10c2 6 7 11 13 15 7 4 14 6 20 6z m-53-33l-50-99 20-10 50 99z m-50-101c-1-3-3-8-3-13l22 0c0 1 0 4 1 7z m-3-13c0-20 15-35 35-35l0 22c-8 0-13 5-13 13z m35-35l104 0 0 22-104 0z m104 0c47 0 85-38 85-85l22 0c0 59-48 107-107 107z m85-85l0-104 22 0 0 104z m0-104c0-20 15-35 35-35l0 22c-8 0-13 5-13 13z m35-35c2 0 5 1 7 1 3 1 5 1 8 2l-10 20c1 0 1 0 0-1 0 0-1 0-2 0-1 0-2 0-3 0z m15 3l99 49-10 20-99-49z m99 50c9 5 17 13 23 22 6 9 10 19 10 30l-22 0c0-6-2-12-6-19-4-6-9-12-15-15z m33 52l0 105-22 0 0-105z m-5 96c74 47 132 112 132 220l-22 0c0-98-52-157-122-202z m132 220c1 25 1 51-7 84l-20-4c6-31 6-55 5-80z m-475-159l43 87-20 10-43-87z m42 86c0 0 0 0 1 1 0 0 1 1 2 2 1 0 2 1 3 1 1 0 1 0 0 0l0 22c-3 0-6-1-8-2-2-1-5-2-6-3-4-3-8-6-10-9z m6 4l85 0 0 22-85 0z m75 16c-14-29-31-64-48-96l20-10c15 32 34 67 48 96z m-49-101l0-1 22 0 0 1z m11 10c0 0 0 0-1 0 0 0-1 0-2 0-2 0-5 0-9 0-7 0-16 0-27 0-20 0-44 1-56 1l0-22c12 0 35 0 56 0 21 0 38-1 39-1z m209-172c0 1 0 1 0 1 0 0 0 0 0 0 0-1 0-2-1-3-1-1-2-2-2-2-1-1-1-1-1-1l12-18c3 2 6 6 8 9 2 2 3 4 4 6 1 2 2 5 2 8z m-3-4l-87-44 10-20 87 44z m-71-54c0 12-1 36-1 57 0 10 0 20 0 27 0 4 0 7 0 9 0 1 0 2 0 2 0 1 0 1 0 1l-22 0c0-1 1-19 1-40 0-20 0-44 0-56z m-12 85l1 0 0 22-1 0z m6 1c16 8 33 17 49 25 16 8 32 16 46 23l-10 20c-14-7-30-15-46-24-16-8-33-16-49-24z m90 47l1 0 0 22-1 0z m-10 11l0-86 22 0 0 86z m-82-12c-6 20-19 40-35 56-16 16-36 29-56 35l-6-20c16-5 33-16 47-30 14-14 25-31 30-47z m-84 76c26 53 50 109 86 153 35 43 80 72 149 72l0 22c-76 0-127-34-166-81-37-46-63-105-89-156z m235 225c21 0 40 0 63-4l4 20c-25 6-46 6-67 6z m55 4c4-23 4-42 3-62l22-2c1 22 1 43-5 68z m3-63c0-69-29-114-72-150-43-35-99-60-152-85l10-20c51 26 110 51 156 89 46 38 80 90 80 166z m-366-207c-27 0-55-12-77-39-21-28-35-70-36-132l22 0c1 58 14 96 31 118 17 23 39 31 60 31z m-113-171l0-32 22 0 0 32z m11-43l32 0 0 22-32 0z m32 0c88 2 138 31 159 71 21 39 10 85-18 114l-16-16c23-22 31-58 15-88-15-30-57-58-140-59z m141 185c-17 16-43 29-71 29l0-22c22 0 42-9 55-23z m-28-88c-5-12-17-22-36-30-20-8-46-13-78-13l0-22c34 1 63 6 86 15 23 9 40 23 48 42z m-104-57c0 1 1 2 1 2 0 0 0 0 0 1 0 0 0 1 0 1 0 1 0 3 0 5 0 3 0 8 1 14 1 12 3 27 7 42 4 15 10 29 19 39 8 9 19 15 33 15l0 22c-22 0-38-10-49-24-12-13-19-30-23-47-5-16-7-33-8-45-1-6-1-11-1-15 0-2 0-3 0-5-1 0-1 0-1 0 0-1 0 0 0 0 0 0 1 0 1 0 0 0 0 1 0 1z m61 119c13 0 26-5 33-13l16 16c-13 12-32 19-49 19z m34-13c10-9 16-30 9-49l20-8c11 27 1 58-15 73z"/>
<glyph glyph-name="rocket" unicode="&#116;" d="M491 490c-2 5-6 10-12 12-30 6-54 6-78 6-97 0-155-52-199-120l-99 0c-15-1-33-12-41-26l-46-93c-1-3-2-7-2-10 0-13 10-23 23-23l97 0-21-21c-11-11-12-31 0-43l49-48c10-10 30-12 42 0l21 21 0-97c1-14 10-23 23-23 3 0 7 1 10 2l93 46c15 8 25 26 25 41l0 99c69 43 121 102 121 199 1 24 1 47-6 78z m-114-140c-22 0-38 16-38 38 0 20 16 37 38 37 21 0 38-17 38-37 0-22-17-38-38-38z"/>
<glyph glyph-name="recommended" unicode="&#117;" d="M114 274l-75 0c-14 0-23-10-23-23l0-225c0-13 9-22 23-22l75 0c12 0 22 9 22 22l0 225c0 13-10 23-22 23z m-38-233c-13 0-22 10-22 23 0 12 9 22 22 22 12 0 23-10 23-22 0-13-11-23-23-23z m300 366c0 69-45 77-67 77-20 0-29-38-32-54-6-21-11-42-25-56-30-31-46-69-83-106-2-2-3-5-3-8l0-201c0-5 5-10 10-11 15 0 35-8 50-15 30-13 67-29 112-29l2 0c41 0 89 0 107 27 9 11 11 25 6 42 16 16 23 46 16 71 16 21 18 52 8 74 12 11 19 29 18 46 0 29-24 55-55 55l-96 0c8 26 32 49 32 88z"/>
<glyph glyph-name="plus-square" unicode="&#118;" d="M384 273l0-34c0-9-4-14-13-14l-96 0 0-96c0-8-4-13-13-13l-35 0c-9 0-13 5-13 13l0 96-96 0c-9 0-13 5-13 14l0 34c0 9 4 14 13 14l96 0 0 96c0 8 4 13 13 13l35 0c9 0 13-5 13-13l0-96 96 0c9 0 13-5 13-14z m105 175l0-384c0-15-5-27-16-37-10-10-22-15-37-15l-384 0c-14 0-27 5-37 15-10 10-15 22-15 37l0 384c0 15 5 27 15 37 10 10 23 15 37 15l384 0c15 0 27-5 37-15 11-10 16-22 16-37z m-53-377l0 370c0 5-2 7-6 7l-371 0c-4 0-7-2-7-7l0-370c0-5 3-7 7-7l371 0c4 0 6 2 6 7z"/>
<glyph glyph-name="play" unicode="&#119;" d="M451 296l-343 202c-28 17-70 0-70-40l0-404c0-37 39-60 70-41l343 202c30 19 30 62 0 81z"/>
<glyph glyph-name="location" unicode="&#120;" d="M237 34c9-13 28-13 37 0 138 199 163 219 163 293 0 100-81 181-181 181-101 0-181-81-181-181 0-74 24-94 162-293z m19 218c-42 0-76 33-76 75 0 42 34 76 76 76 42 0 76-34 76-76 0-42-34-75-76-75z"/>
<glyph glyph-name="linkedin-in" unicode="&#121;" d="M114 0l0 342-106 0 0-342z m-53 387c34 0 61 29 61 63 0 33-27 61-61 61-34 0-61-28-61-61 0-34 27-63 61-63z m450-387l1 0 0 187c0 92-21 163-128 163-51 0-86-29-101-55l-1 0 0 47-101 0 0-342 106 0 0 169c0 45 8 87 63 87 55 0 56-50 56-90l0-166z"/>
<glyph glyph-name="instagram" unicode="&#122;" d="M256 385c-68 0-122-55-122-121 0-68 54-122 122-122 67 0 122 54 122 122 0 66-55 121-122 121z m0-201c-43 0-79 35-79 80 0 43 35 78 79 78 43 0 78-35 78-78 0-45-35-80-78-80z m155 206c0 15-13 28-29 28-16 0-29-13-29-28 0-16 13-29 29-29 16 0 29 13 29 29z m80-29c-2 38-11 72-38 99-28 28-61 36-100 39-39 2-156 2-195 0-39-3-71-11-100-39-28-27-36-61-38-99-2-39-2-157 0-196 2-38 10-71 38-99 29-28 61-36 100-39 39-2 156-2 195 0 39 3 72 11 100 39 27 28 36 61 38 99 2 39 2 157 0 196z m-51-237c-7-21-24-37-44-46-32-12-106-9-140-9-35 0-109-3-140 9-21 9-37 25-45 46-13 30-10 105-10 140 0 33-3 108 10 139 8 20 24 36 45 45 31 12 105 9 140 9 34 0 108 3 140-9 20-8 36-25 44-45 13-31 10-106 10-139 0-35 3-110-10-140z"/>
<glyph glyph-name="play-2" unicode="&#66;" d="M446 295l-335 198c-27 16-68 0-68-39l0-396c0-36 38-58 68-40l335 198c30 18 30 61 0 79z m-15-52l-335-198c-10-6-23 1-23 13l0 396c0 15 15 17 23 12l335-198c10-5 10-20 0-25z"/>
<glyph glyph-name="previous" unicode="&#67;" d="M69 286l329 194c27 16 67 0 67-38l0-389c0-35-37-57-67-39l-329 194c-29 18-29 60 0 78z m15-52l329-194c10-5 22 1 22 13l0 389c0 15-15 16-22 12l-329-194c-9-6-9-20 0-26z"/>
<glyph glyph-name="random" unicode="&#68;" d="M505 148c5-5 7-10 7-17 0-7-2-12-7-17l-80-80c-7-7-16-9-26-5-10 4-15 11-15 22l0 40-59 0c-3 0-6 1-9 4l-70 75 53 58 53-57 32 0 0 40c0 11 5 18 15 22 10 4 19 2 26-5z m-493 183c-8 0-12 4-12 12l0 56c0 8 4 12 12 12l111 0c3 0 6-1 9-4l70-75-53-58-53 57z m372 0l-32 0-220-236c-3-3-6-4-9-4l-111 0c-8 0-12 4-12 12l0 56c0 8 4 12 12 12l84 0 220 236c3 3 6 4 9 4l59 0 0 40c0 11 5 18 15 22 10 4 19 2 26-5l80-80c5-5 7-10 7-17 0-7-2-12-7-17l-80-80c-7-7-16-9-26-5-10 4-15 11-15 22z"/>
<glyph glyph-name="volume" unicode="&#69;" d="M363 321c-7 4-18 0-22-8-4-9 0-18 9-22 14-8 24-21 24-35 0-15-10-28-24-36-9-4-13-13-9-22 4-8 15-13 22-8 28 12 45 38 45 66 0 27-17 53-45 65z m-116 137c-7 0-13-3-17-8l-94-93-107 0c-15 0-26-12-26-25l0-152c0-15 11-25 26-25l107 0 94-94c4-5 10-7 17-7 13 0 26 9 26 25l0 353c0 16-13 26-26 26z m-8-359l-89 90-113 0 0 134 113 0 89 89z m270 157c0 69-37 133-94 165-8 6-19 2-23-6-5-7-2-18 6-22 46-28 76-80 76-137 0-58-30-111-76-138-8-4-11-15-6-22 4-8 15-12 23-6 57 32 94 95 94 166z"/>
<glyph glyph-name="trending" unicode="&#70;" d="M496 124l-432 0 0 304c0 8-8 16-16 16l-32 0c-9 0-16-8-16-16l0-336c0-18 14-32 32-32l464 0c8 0 16 7 16 16l0 32c0 8-8 16-16 16z m-32 288l-119 0c-21 0-32-26-17-41l33-33-73-73-74 73c-12 13-33 13-45 0l-69-69c-6-6-6-16 0-22l23-23c6-6 16-6 22 0l47 46 73-73c12-13 33-13 45 0l96 96 33-33c15-15 40-4 40 17l0 119c1 8-7 16-15 16z"/>
<glyph glyph-name="joined" unicode="&#71;" d="M155 246c48 0 88 39 88 88 0 48-40 89-88 89-49 0-88-41-88-89 0-49 39-88 88-88z m60-25l-6 0c-17-8-35-13-54-13-20 0-38 5-55 13l-6 0c-50 0-91-41-91-92l0-22c0-21 17-38 38-38l228 0c20 0 38 17 38 38l0 22c0 51-42 92-92 92z m167 25c42 0 76 34 76 76 0 42-34 75-76 75-42 0-75-33-75-75 0-42 33-76 75-76z m38-25l-3 0c-11-4-23-7-35-7-12 0-24 3-35 7l-3 0c-16 0-31-5-44-13 19-21 32-48 32-79l0-30c0-2-1-3-1-5l140 0c20 0 38 17 38 38 0 48-41 89-89 89z"/>
<glyph glyph-name="demo" unicode="&#72;" d="M441 170c-16 0-29-7-39-16l-61 35c4 9 7 19 7 30 0 47-40 87-87 87-7 0-14-2-20-2l-25 53c12 10 20 25 20 41 0 31-26 56-56 56-31 0-56-25-56-56 0-30 25-56 56-56 0 0 1 1 2 1l26-56c-21-15-34-40-34-68 0-48 39-87 87-87 23 0 45 10 60 25l65-36c-1-3-1-5-1-7 0-31 25-56 56-56 30 0 55 25 55 56 0 30-25 56-55 56z m-261 210c-11 0-19 8-19 19 0 10 8 19 19 19 10 0 19-9 19-19 0-11-9-19-19-19z m81-210c-28 0-50 21-50 49 0 27 22 50 50 50 27 0 49-23 49-50 0-28-22-49-49-49z m180-75c-11 0-19 8-19 19 0 10 8 18 19 18 10 0 18-8 18-18 0-11-8-19-18-19z m-43 202l-15 20-37-28 15-19z m49 9c27 0 49 22 49 50 0 27-22 49-49 49-28 0-50-22-50-49 0-28 22-50 50-50z m-329-99l37 0 0 25-37 0z m-68 62c-28 0-50-23-50-50 0-28 22-49 50-49 27 0 49 21 49 49 0 27-22 50-49 50z"/>
<glyph glyph-name="repeat" unicode="&#73;" d="M495 247c0 34-12 65-31 90-4 6-12 6-17 1l-5-6c-4-3-4-9-1-14 15-20 24-44 24-71 0-66-54-119-119-119l-226 0 63 63c5 4 5 12 0 16l-4 5c-5 5-13 5-16 0l-93-91c-3-5-3-12 0-16l93-92c3-4 11-4 16 0l4 5c5 5 5 12 0 16l-63 64 226 0c82 0 149 66 149 149z m-425-71c-15 20-23 44-23 71 0 66 53 120 119 120l225 0-63-64c-5-4-5-12 0-16l5-5c4-5 12-5 15 0l93 91c4 5 4 12 0 16l-93 92c-3 4-11 4-15 0l-5-5c-5-5-5-12 0-16l63-63-225 0c-83 0-149-67-149-150 0-34 11-65 30-90 4-6 12-6 17-1l5 6c4 3 4 9 1 14z"/>
<glyph glyph-name="arrow-right" unicode="&#74;" d="M222 445l23 22c5 5 10 7 17 7 7 0 12-2 17-7l194-194c5-5 7-10 7-17 0-7-2-12-7-17l-194-194c-5-5-10-7-17-7-7 0-12 2-17 7l-23 22c-5 5-7 10-7 17 1 7 3 12 8 17l120 115-287 0c-7 0-12 2-17 7-5 5-7 10-7 17l0 32c0 7 2 12 7 17 5 5 10 7 17 7l287 0-120 115c-5 5-7 10-8 17 0 7 2 12 7 17z"/>
<glyph glyph-name="network" unicode="&#65;" d="M461 307c28 0 51 23 51 51 0 28-23 52-51 52-29 0-51-24-51-52 0-28 22-51 51-51z m-410-38c-29 0-51-23-51-51 0-29 22-52 51-52 28 0 51 23 51 52 0 28-23 51-51 51z m359 29l-15 20-38-28 15-20z m51-144c-12 0-23-4-31-11l-77 46c3 9 5 18 5 29 0 49-40 89-89 89-7 0-14-1-20-2l-33 69c9 10 14 22 14 36 0 28-23 51-51 51-29 0-51-23-51-51 0-29 22-52 51-52 1 0 2 0 3 0l32-70c-21-16-35-42-35-70 0-50 40-90 90-90 25 0 48 10 65 28l76-46c0-3 0-5 0-8 0-28 22-51 51-51 28 0 51 23 51 51 0 28-23 52-51 52z m-192 25c-22 0-39 17-39 39 0 20 17 38 39 38 21 0 38-18 38-38 0-22-17-39-38-39z m-147 26l38 0 0 25-38 0z"/>
<glyph glyph-name="next" unicode="&#66;" d="M443 286l-329 194c-27 16-67 0-67-38l0-389c0-35 37-57 67-39l329 194c29 18 29 60 0 78z m-15-52l-329-194c-10-5-22 1-22 13l0 389c0 15 15 16 22 12l329-194c9-6 9-20 0-26z"/>
<glyph glyph-name="download-right" unicode="&#75;" d="M497 246l-168-168c-7-7-16-9-26-5-10 4-15 11-15 22l0 96-136 0c-7 0-12 2-17 7-5 5-7 10-7 17l0 96c0 7 2 12 7 17 5 5 10 7 17 7l136 0 0 96c0 11 5 18 15 22 10 4 19 2 26-5l168-168c5-5 7-10 7-17 0-7-2-12-7-17z m-305-163c0-8-4-12-12-12l-84 0c-27 0-49 9-68 28-19 19-28 41-28 68l0 192c0 27 9 49 28 68 19 19 41 28 68 28l84 0c8 0 12-4 12-12l0-40c0-8-4-12-12-12l-84 0c-9 0-16-3-23-10-6-6-9-13-9-22l0-192c0-9 3-16 9-23 7-6 14-9 23-9l84 0c8 0 12-4 12-12z"/>
<glyph glyph-name="pause" unicode="&#76;" d="M71 21l101 0c27 0 50 22 50 51l0 370c0 28-23 51-50 51l-101 0c-29 0-51-23-51-51l0-370c0-29 22-51 51-51z m-17 421c0 9 7 17 17 17l101 0c8 0 17-8 17-17l0-370c0-10-9-17-17-17l-101 0c-10 0-17 7-17 17z m286-421l101 0c28 0 51 22 51 51l0 370c0 28-23 51-51 51l-101 0c-28 0-50-23-50-51l0-370c0-29 22-51 50-51z m-17 421c0 9 8 17 17 17l101 0c9 0 17-8 17-17l0-370c0-10-8-17-17-17l-101 0c-9 0-17 7-17 17z"/>
<glyph glyph-name="map-marked-alt" unicode="&#77;" d="M487 339c-2 0-4 0-5-1l-148-54-10 2c21 31 38 62 38 86 0 59-51 107-112 107-61 0-111-49-111-107 0-11 4-23 9-36l-131-45c-10-5-17-15-17-26l0-218c0-8 6-14 14-14 2 0 3 0 5 1l148 55 150-53c11-3 23-4 34 0l132 46c11 4 18 14 18 25l0 219c0 7-7 13-14 13z m-334-226l-126-46-1 197 127 44z m97 338c46 0 84-36 84-79 0-24-34-78-84-137-50 59-83 113-83 137 0 43 37 79 83 79z m70-387l-139 49 0 166c21-31 45-59 58-74 3-4 7-5 11-5 4 0 8 1 11 5 11 13 29 34 47 58l12-4z m28 0l0 195 125 47 1-198z m-77 303c0 12-9 21-21 21-12 0-20-9-20-21 0-12 8-21 20-21 12 0 21 9 21 21z"/>
<glyph glyph-name="soundcloud" unicode="&#78;" d="M89 398c0 2-2 3-3 3-3 0-4-1-4-3l-4-52 4-54c0-3 1-3 4-3 1 0 3 0 3 3l5 54z m17 37c-2 0-4-2-4-4l-4-85 4-54c0-3 2-4 4-4 2 0 4 1 4 4l4 54-4 85c0 2-2 4-4 4z m20 19c-2 0-4-1-4-4l-4-104 4-54c0-3 2-4 4-4 3 0 4 1 4 4l4 54-4 104c0 3-1 4-4 4z m-120-77c-2 0-2-1-3-2l-3-29 3-28c1-1 1-1 3-1 0 0 1 0 1 1l5 28-5 29c0 1-1 2-1 2z m18 17c-1 0-2-1-2-1l-5-47 5-45c0-1 1-2 2-2 2 0 2 1 2 2l6 45-6 47c0 0 0 1-2 1z m21 10c-2 0-3-2-3-3l-4-55 4-53c0 0 1-2 3-2 1 0 2 2 2 2l6 53-6 55c0 1-1 3-2 3z m20 1c-2 0-3-1-3-3l-4-56 4-54c0-2 1-3 3-3 1 0 3 1 3 3l5 54-5 56c0 2-2 3-3 3z m193 89c-1 1-2 1-4 1-1 0-3-1-4-2-1 0-3-3-3-4l0-1-2-142 1-25 1-26c1-4 4-7 7-7 4 0 8 3 8 7l3 51-3 143c-1 2-2 4-4 5z m-21-13c-2 1-3 2-4 2-1 0-3-1-3-2-2 0-4-2-4-4l0-2-2-129c0 0 0 0 2-52l0-1c0 0 1-2 2-3 2-1 3-2 5-2 2 0 4 1 5 1 1 1 1 3 1 5l1 5 2 47-2 131c-1 2-2 4-3 4z m-90-17c-2 0-5-3-5-5l-3-113 3-53c1-3 3-5 5-5 3 0 5 2 5 5l4 53-4 113c0 2-2 5-5 5z m302-51c-9 0-17-1-25-4-5 56-52 100-110 100-15 0-28-2-40-7-5-1-7-3-7-7l0-200c0-4 3-6 7-7l175 0c34 0 62 28 62 62 1 35-28 63-62 63z m-238 48c-3 0-5-2-6-5l-3-110 3-53c1-3 3-5 6-5 3 0 7 2 7 5l3 53-3 110c-1 3-4 5-7 5z m-42 7c-3 0-6-3-6-5l-3-117 3-53c1-3 3-5 6-5 2 0 5 2 5 5l4 53-4 117c0 2-3 5-5 5z m21-3c-4 0-6-2-6-5l-2-114 2-53c1-3 3-5 6-5 3 0 5 2 5 5l3 53-3 114c0 3-2 5-5 5z"/>
<glyph glyph-name="plane-departure" unicode="&#79;" d="M64 189c6-6 16-10 24-10l102 0c7 0 19 3 25 6l227 113c23 11 42 27 55 46 14 22 17 40 10 54-9 19-33 25-58 25-21 0-42-5-63-16l-74-37-167 62c-3 2-7 3-11 3-3-1-7-1-9-2l-51-26c-6-2-11-9-12-15 0-1 0-2 0-2 0-6 4-14 10-16l109-68-67-33-53 26c-3 1-7 2-10 2-2 0-6-1-9-2l-31-16c-5-2-10-9-11-13 0-2 0-4 0-4 0-4 2-11 5-14z m-13 86l63-31 120 59-140 86 40 20 179-66 84 42c17 8 35 13 52 13 13 0 31-4 35-11 3-5-1-17-9-29-10-16-25-28-45-38l-226-112c-4-2-10-3-14-3l-102 0c-2 0-4 1-6 1l-53 58z m455-173l-499 0c-4 0-6-3-6-6l0-13c0-4 2-6 6-6l499 0c3 0 6 2 6 6l0 13c0 3-3 6-6 6z"/>
<glyph glyph-name="plus-circle" unicode="&#80;" d="M375 266c0 6-6 11-11 11l-82 0 0 82c0 6-6 11-11 11l-30 0c-6 0-11-5-11-11l0-82-82 0c-6 0-11-5-11-11l0-29c0-7 5-12 11-12l82 0 0-81c0-7 5-11 11-11l30 0c5 0 11 4 11 11l0 81 82 0c5 0 11 5 11 12z m111-15c0 128-103 231-230 231-127 0-230-103-230-231 0-127 103-230 230-230 127 0 230 103 230 230z m-44 0c0-103-84-185-186-185-103 0-186 82-186 185 0 103 83 186 186 186 102 0 186-83 186-186z"/>
<glyph glyph-name="star" unicode="&#81;" d="M228 483l-62-127-140-20c-24-4-34-34-16-52l100-98-24-139c-3-24 23-43 45-32l125 66 124-66c22-11 48 8 45 32l-24 139 100 98c18 18 8 48-16 52l-139 20-63 127c-11 22-43 23-55 0z"/>
<glyph glyph-name="spotify" unicode="&#82;" d="M244 492c-130 0-236-106-236-236 0-130 106-236 236-236 130 0 236 106 236 236 0 130-106 236-236 236z m95-347c-4 0-6 1-9 2-60 37-129 38-197 24-4-1-9-3-12-3-9 0-15 8-15 16 0 9 6 14 13 16 78 17 157 15 226-25 6-4 9-8 9-16 0-9-7-14-15-14z m26 61c-5 0-9 3-11 4-60 36-149 50-228 29-5-1-7-3-12-3-9 0-18 9-18 19 0 10 5 16 15 19 26 8 54 13 93 13 62 0 122-15 169-43 7-4 11-11 11-18-1-11-9-20-19-20z m29 73c-4 0-7 2-12 4-68 41-188 50-268 28-2-1-7-3-12-3-12 0-22 11-22 23 0 14 9 20 17 23 34 10 71 14 112 14 69 0 143-14 195-45 8-4 12-10 12-21 0-14-10-23-22-23z"/>
<glyph glyph-name="comments" unicode="&#83;" d="M367 307c0 76-82 139-180 139-100 0-181-63-181-139 0-30 13-57 33-80-12-26-31-47-31-47-2-2-2-5-2-8 2-3 4-3 7-3 32 0 58 10 77 21 27-14 61-21 97-21 98 0 180 61 180 138z m106-190c20 22 33 49 33 79 0 57-47 108-113 129 1-7 2-13 2-18 0-92-94-166-208-166-10 0-19 0-28 1 27-50 91-84 166-84 36 0 69 7 97 21 19-11 45-21 77-21 2 0 5 0 6 3 1 3 1 6-2 8 0 0-19 21-30 48z"/>
<glyph glyph-name="user-cog" unicode="&#84;" d="M482 157c2 11 2 23 0 34l20 11c2 1 3 4 2 6-5 18-14 32-26 46-1 1-4 2-7 0l-20-11c-8 7-18 13-29 16l0 23c0 3-1 6-3 6-18 4-35 4-53 0-2 0-3-3-3-6l0-23c-11-3-21-9-29-16l-20 11c-3 2-6 1-7 0-12-14-21-28-26-46-1-2 0-5 2-6l20-11c-2-11-2-23 0-34l-20-12c-2 0-3-3-2-6 5-17 14-32 26-45 1-1 4-2 7-1l20 12c8-7 18-13 29-16l0-24c0-3 1-5 3-5 18-4 35-4 53 0 2 0 3 2 3 5l0 24c11 3 21 9 29 16l20-12c3-1 6 0 7 1 12 13 21 28 26 45 1 3 0 6-2 6z m-89-21c-21 0-38 17-38 38 0 20 17 38 38 38 20 0 37-18 37-38 0-21-17-38-37-38z m-212 113c55 0 100 44 100 99 0 55-45 100-100 100-55 0-99-45-99-100 0-55 44-99 99-99z m157-177c-3 1-4 3-6 3l-6-3c-5-3-10-4-16-4-7 0-16 4-21 10-15 15-26 34-32 53-4 14 1 29 14 36l6 4c0 2 0 4 0 6l-6 3c-13 7-18 22-14 36 1 3 2 4 3 6-3 1-6 2-9 2l-14 0c-17-9-35-12-56-12-20 0-39 3-56 12l-14 0c-57 0-104-47-104-105l0-32c0-21 16-37 37-37l274 0c8 0 15 2 21 6-1 3-1 6-1 9z"/>
<glyph glyph-name="music" unicode="&#85;" d="M457 482l-300-88c-12-4-21-17-21-29l0-245c-8 2-22 3-30 4-50 0-90-27-90-60 0-34 40-60 90-60 50 0 90 26 90 60l0 218 240 71 0-173c-8 2-22 3-30 4-50 0-90-27-90-60 0-34 40-60 90-60 50 0 90 26 90 60l0 330c-1 16-14 29-30 29-3 0-7 0-9-1z"/>
<glyph glyph-name="caret-up" unicode="&#86;" d="M455 121c28 0 42 33 22 53l-199 199c-13 12-33 12-45 0l-199-199c-21-20-7-53 21-53z"/>
<glyph glyph-name="edit" unicode="&#87;" d="M395 457c-12-11-22-23-22-25 0-5 84-89 89-89 4 0 39 34 44 42 4 9 4 26 0 34-5 8-50 53-58 57-3 2-11 3-18 3-13 0-13 0-35-22z m-367-37c-5-3-12-9-16-15l-6-9-1-165 0-166 5-11c4-8 10-13 16-17l10-5 168 0c167 1 169 1 176 6 4 3 9 9 12 13 6 9 6 9 5 89l0 81-9 0c-7 1-10-1-28-18l-19-19 0-96-277 0 0 280 207 0 19 19c19 20 23 28 16 35-2 2-36 3-135 3-128 0-133-1-143-5z m222-107l-97-97-3-36c-7-65-7-66 26-64 11 1 32 3 45 5l26 3 96 97c85 84 97 98 96 102-2 9-81 87-87 87-3 0-41-36-102-97z"/>
<glyph glyph-name="youtube" unicode="&#88;" d="M483 459c-5 21-22 37-42 43-37 10-185 10-185 10 0 0-149 0-186-10-20-6-37-22-42-43-10-37-10-115-10-115 0 0 0-77 10-115 5-21 22-36 42-41 37-10 186-10 186-10 0 0 148 0 185 10 20 5 37 20 42 41 10 38 10 115 10 115 0 0 0 78-10 115z m-276-185l0 141 124-71z"/>
<glyph glyph-name="upload" unicode="&#89;" d="M464 64c26 0 48 22 48 48l0 288c0 26-22 48-48 48l-416 0c-26 0-48-22-48-48l0-288c0-26 22-48 48-48z m-351 329c30 0 55-25 55-55 0-29-25-55-55-55-29 0-54 26-54 55-4 30 21 55 54 55z m-47-267l0 51 69 70c4 4 11 4 19 0l54-55 136 135c3 4 11 4 18 0l88-87 0-114z"/>
<glyph glyph-name="edit2" unicode="&#90;" d="M355 181c-3-4-3-4-3-7l0-99-304 0 0 307 208 0c3 0 3 0 7 4l27 24c4 3 0 13-7 13l-235 0c-24 0-41-20-41-41l0-303c0-24 17-45 41-45l304 0c23 0 41 17 41 41l0 126c0 7-7 11-14 7z m137 174c20 20 20 51 0 72l-38 37c-21 21-51 21-72 0l-228-228-7-79c-4-24 17-41 37-38l79 11z m-86-27l-160-161-58-7 7 58 160 161z m55 68c3-3 3-10 0-14l-28-27-51 51 28 27c3 4 10 4 13 0z"/>
<glyph glyph-name="delete" unicode="&#48;" d="M298 100l23 0c7 0 11 4 11 12l0 209c0 7-8 11-11 11l-23 0c-8 0-12-8-12-11l0-209c0-4 4-12 12-12z m159 327l-79 0-35 53c-7 12-26 23-38 23l-98 0c-16 0-31-11-38-23l-35-53-79 0c-8 0-16-8-16-15l0-15c0-8 8-16 16-16l15 0 0-323c0-30 19-49 45-49l278 0c26 0 45 19 45 46l0 323 19 0c8 0 16 7 16 15l0 19c0 7-8 15-16 15z m-254 27c0 0 4 3 4 3l91 0c0 0 4-3 4-3l19-27-133 0z m190-399l-278 0 0 323 278 0z m-202 45l23 0c8 0 12 4 12 12l0 209c0 7-8 11-12 11l-23 0c-7 0-11-8-11-11l0-209c0-4 4-12 11-12z"/>
<glyph glyph-name="rating" unicode="&#49;" d="M485 336l-139 20-63 127c-11 22-43 23-55 0l-62-127-140-20c-24-4-34-34-16-52l100-98-24-139c-3-24 23-43 45-32l125 66 124-66c22-11 48 8 45 32l-24 139 100 98c18 18 8 48-16 52z m-118-139l27-154-138 72-139-72 27 154-113 109 155 22 70 141 69-141 155-22z"/>
<glyph glyph-name="save" unicode="&#50;" d="M477 397l-88 88c-8 8-24 16-36 16l-283 0c-29 0-51-24-51-51l0-373c0-28 22-51 51-51l372 0c28 0 51 23 51 51l0 284c0 12-7 27-16 36z m-221-303c-38 0-68 30-68 68 0 37 30 68 68 68 37 0 68-31 68-68 0-38-31-68-68-68z m102 322l0-106c0-7-7-13-13-13l-246 0c-7 0-12 6-12 13l0 110c0 7 5 13 12 13l242 0c3 0 6-2 9-4l3-3c3-3 5-7 5-10z"/>
<glyph glyph-name="layer-plus" unicode="&#51;" d="M315 369l61 0 0-61c0-8 6-15 15-15l30 0c8 0 15 7 15 15l0 61 61 0c7 0 15 6 15 15l0 30c0 8-8 15-15 15l-61 0 0 61c0 8-7 15-15 15l-30 0c-9 0-15-7-15-15l0-61-61 0c-9 0-15-7-15-15l0-30c0-9 6-15 15-15z m185-210l-55 26-154-69c-6-4-14-5-22-5-8 0-16 1-22 5l-154 69-55-26c-16-6-16-30 0-37l221-100c7-3 13-3 20 0l221 100c16 7 16 31 0 37z m-462 85l221-101c7-2 13-2 20 0l172 78 0 18c-15-5-30-7-45-7-84 0-153 61-165 142l-203-92c-16-8-16-32 0-38z"/>
<glyph glyph-name="add-user" unicode="&#52;" d="M496 294l-50 0 0 50c0 6-6 13-13 13l-25 0c-6 0-12-7-12-13l0-50-50 0c-7 0-13-7-13-13l0-25c0-6 6-13 13-13l50 0 0-50c0-6 6-12 12-12l25 0c7 0 13 6 13 12l0 50 50 0c7 0 13 7 13 13l0 25c3 6-6 13-13 13z m-317-38c57 0 104 44 104 104-3 53-47 100-104 100-56 0-104-47-104-103 0-57 48-101 104-101z m69-25l-12 0c-16-10-38-13-57-13-19 0-41 3-60 13l-12 0c-60 0-107-50-107-107l0-31c0-25 16-41 38-41l279 0c22 0 38 16 38 38l0 31c3 60-47 110-107 110z"/>
<glyph glyph-name="upload-file" unicode="&#53;" d="M288 374l0 138-201 0c-12 0-24-12-24-24l0-464c0-12 12-24 24-24l334 0c12 0 24 12 24 24l0 327-134 0c-16 0-23 11-23 23z m63-216l-63 0 0-79c0-8-8-16-16-16l-32 0c-8 0-16 8-16 16l0 79-66 0c-16 0-20 19-12 27l94 95c8 8 20 8 24 0l94-95c16-8 8-27-7-27z m90 248l-98 98c-4 4-12 8-16 8l-8 0 0-130 130 0 0 8c0 8-4 12-8 16z"/>
<glyph glyph-name="file" unicode="&#54;" d="M286 367l0 125-185 0c-13 0-22-10-22-22l0-428c0-13 9-22 22-22l310 0c12 0 22 9 22 22l0 303-125 0c-13 0-22 9-22 22z m147 13c0 5-3 11-6 15l-91 91c-4 4-10 6-15 6l-6 0 0-118 118 0z"/>
<glyph glyph-name="long-right-arrow" unicode="&#55;" d="M467 245l-111-89 13-17 143 117-141 117-13-17 109-89-467 0 0-22c0 0 467 0 467 0z"/>
<glyph glyph-name="file-alt" unicode="&#56;" d="M286 356l0 128-187 0c-14 0-23-10-23-23l0-435c0-13 9-22 23-22l315 0c12 0 22 9 22 22l0 308-127 0c-14 0-23 9-23 22z m60-221c0-6-6-11-11-11l-158 0c-6 0-11 5-11 11l0 8c0 5 5 11 11 11l158 0c5 0 11-6 11-11z m0 60c0-6-6-11-11-11l-158 0c-6 0-11 5-11 11l0 8c0 5 5 11 11 11l158 0c5 0 11-6 11-11z m0 68l0-8c0-6-6-11-11-11l-158 0c-6 0-11 5-11 11l0 8c0 5 5 11 11 11l158 0c5 0 11-6 11-11z m90 107c0 5-3 11-7 16l-91 91c-5 4-11 7-16 7l-6 0 0-120 120 0z"/>
<glyph glyph-name="microphone-alt" unicode="&#57;" d="M406 304l-15 0c-8 0-15-8-15-15l0-45c0-70-61-127-132-120-63 7-108 62-108 125l0 40c0 7-7 15-15 15l-15 0c-8 0-15-8-15-15l0-38c0-84 59-159 143-170l0-32-53 0c-8 0-15-8-15-15l0-15c0-8 7-15 15-15l150 0c8 0 15 7 15 15l0 15c0 7-7 15-15 15l-52 0 0 31c79 11 142 81 142 164l0 45c0 7-7 15-15 15z m-150-150c50 0 90 39 90 90l-81 0c-5 0-9 3-9 7l0 15c0 4 4 8 9 8l81 0 0 30-81 0c-5 0-9 3-9 7l0 15c0 4 4 8 9 8l81 0 0 30-81 0c-5 0-9 3-9 7l0 15c0 4 4 8 9 8l81 0c0 50-40 90-90 90-51 0-90-40-90-90l0-150c0-51 39-90 90-90z"/>
<glyph glyph-name="file-audio" unicode="&#33;" d="M286 356l0 128-187 0c-14 0-23-10-23-23l0-435c0-13 9-22 23-22l315 0c12 0 22 9 22 22l0 308-127 0c-14 0-23 9-23 22z m-60-251c0-10-12-15-20-8l-32 34-27 0c-6 0-11 5-11 12l0 52c0 6 5 11 11 11l27 0 32 34c8 8 20 2 20-7z m31 44c8 9 8 23 0 32-21 21 11 53 32 31 25-26 25-67 0-94-21-21-54 10-32 31z m81 110c50-53 50-136 0-188-21-21-54 10-33 31 34 35 34 90 0 126-21 22 12 53 33 31z m98 111c0 5-3 11-7 16l-91 91c-5 4-11 7-16 7l-6 0 0-120 120 0z"/>
<glyph glyph-name="file-video" unicode="&#34;" d="M436 370c0 4-4 12-7 16l-91 90c-5 5-11 8-16 8l-6 0 0-120 120 0z m-150-14l0 128-187 0c-14 0-23-10-23-23l0-435c0-13 9-22 23-22l315 0c12 0 22 9 22 22l0 308-127 0c-14 0-23 9-23 22z m90-135l0-105c0-20-24-30-38-15l-52 51 0-36c0-13-10-22-22-22l-105 0c-14 0-23 9-23 22l0 105c0 13 9 23 23 23l105 0c12 0 22-10 22-23l0-36 52 51c14 15 38 5 38-15z"/>
<glyph glyph-name="arrow-down" unicode="&#35;" d="M434 309l24-24c5-5 7-11 7-18 0-7-2-13-7-18l-207-207c-5-5-11-8-18-8-8 0-14 3-19 8l-207 207c-5 5-7 11-7 18 0 7 2 13 7 18l24 24c5 5 11 8 18 8 7-1 13-4 18-9l123-128 0 306c0 8 2 14 7 19 5 5 11 7 18 7l35 0c7 0 13-2 18-7 5-5 7-11 7-19l0-306 123 128c5 5 11 8 18 9 7 0 13-3 18-8z m0 0l24-24c5-5 7-11 7-18 0-7-2-13-7-18l-207-207c-5-5-11-8-18-8-8 0-14 3-19 8l-207 207c-5 5-7 11-7 18 0 7 2 13 7 18l24 24c5 5 11 8 18 8 7-1 13-4 18-9l123-128 0 306c0 8 2 14 7 19 5 5 11 7 18 7l35 0c7 0 13-2 18-7 5-5 7-11 7-19l0-306 123 128c5 5 11 8 18 9 7 0 13-3 18-8z"/>
<glyph glyph-name="hand-point-up" unicode="&#36;" d="M202 505c-22 0-42-21-42-42l0-142c-7 5-15 10-23 14-30 12-64-10-63-42 0-18 10-31 28-38 26-12 60-75 73-102 7-17 23-27 41-27l162 0c12 0 21 8 23 19 7 45 36 59 36 118 0 2 1 12 1 15 0 47-22 77-68 68-9 18-37 29-59 16-20 23-51 21-67 6l0 95c0 22-19 42-42 42z m1-394c-13 0-23-10-23-23l0-45c0-13 10-23 23-23l182 0c12 0 23 10 23 23l0 45c0 13-11 23-23 23z m159-26c11 0 19-9 19-19 0-12-8-19-19-19-11 0-19 7-19 19 0 10 8 19 19 19z"/>
<glyph glyph-name="users" unicode="&#37;" d="M85 277c26 0 49 21 49 49 0 26-23 49-49 49-28 0-49-23-49-49 0-28 21-49 49-49z m342 0c27 0 49 21 49 49 0 26-22 49-49 49-27 0-49-23-49-49 0-28 22-49 49-49z m25-25l-49 0c-14 0-26-6-35-14 31-17 52-48 58-84l50 0c13 0 25 11 25 25l0 24c0 27-22 49-49 49z m-196 0c47 0 86 38 86 86 0 47-39 86-86 86-47 0-86-39-86-86 0-48 39-86 86-86z m58-24l-6 0c-16-8-34-12-52-12-19 0-37 4-53 12l-6 0c-49 0-88-40-88-89l0-21c0-21 16-37 37-37l220 0c20 0 37 16 37 37l0 21c0 49-40 89-89 89z m-170 10c-10 8-22 14-35 14l-49 0c-27 0-49-22-49-49l0-24c0-14 11-25 25-25l49 0c6 36 27 67 59 84z"/>
<glyph glyph-name="comments2" unicode="&#38;" d="M465 150c23 23 38 52 38 85 0 68-66 125-152 134-26 50-90 85-164 85-98 0-178-62-178-137 0-32 14-61 38-85-14-26-33-46-33-47-5-5-7-14-4-21 3-7 10-12 19-12 45 0 82 18 107 33 8-2 16-3 24-4 27-49 90-83 165-83 17 0 34 1 50 5 25-16 62-33 108-33 8 0 15 4 18 12 3 7 2 16-4 22 0 0-19 20-32 46z m-337 80l-14-10c-12-8-25-14-37-19 2 5 4 9 7 13l13 27-22 21c-11 11-25 30-25 55 0 51 63 96 137 96 74 0 138-45 138-96 0-52-64-96-138-96-14 0-28 1-42 4z m308-50l-21-22 13-26c2-4 5-9 7-13-13 4-25 11-37 19l-15 9-16-4c-14-3-29-4-42-4-47 0-89 17-114 42 88 9 155 67 155 136 0 3-1 5-1 9 55-13 97-49 97-91 0-25-15-44-26-55z"/>
<glyph glyph-name="webcam-slash" unicode="&#39;" d="M502 93l-468 366c-3 1-6 3-8 3-4 0-8-2-10-5l-8-10c-2-2-3-5-3-8 0-3 2-8 5-9l468-366c2-2 5-3 8-3 3 0 7 2 9 5l8 9c2 2 3 6 3 8 0 3-2 8-4 10z m-140 157c4 12 7 23 7 37 0 61-51 112-113 112-19 0-46-8-62-18l32-26c8 4 22 7 31 7 40 0 73-33 73-74 0-4 0-9 0-13z m-106 174c76 0 137-61 137-137 0-16-5-40-10-54l30-23c10 19 18 54 18 77 0 96-79 175-175 175l-1 0c-35 0-85-19-112-42l31-23c19 15 56 27 81 27z m0-250c5 0 13 1 18 1l-130 102c5-58 53-103 112-103z m0-25c-77 0-138 61-138 138 0 3 0 7 0 10l-33 26c-3-10-4-26-4-36 0-61 29-113 75-144l-39-25c-7-4-11-13-11-21l0-11c0-14 11-25 25-25l250 0c10 0 17 6 22 14l-104 81c-12-4-31-7-43-7z"/>
<glyph glyph-name="microphone-alt-slash" unicode="&#40;" d="M501 93l-467 366c-6 4-14 3-18-2l-8-10c-5-5-3-13 2-17l468-366c5-5 13-4 17 2l8 9c5 6 3 14-2 18z m-107 169l0 37c0 6-7 13-13 13l-12 0c-7 0-13-7-13-13l0-37c0-3-1-5-1-7l34-26c2 10 5 21 5 33z m-75-163l-44 0 0 26c15 2 31 7 44 14l-33 27c-13-4-26-6-40-5-53 6-90 52-90 104l0 3-38 30 0-31c0-70 50-132 119-142l0-26-44 0c-7 0-12-6-12-13l0-12c0-7 5-13 12-13l126 0c6 0 12 6 12 13l0 12c0 7-6 13-12 13z m-101 288c0 20 17 37 38 37 20 0 38-17 38-37l-32 0c-4 0-6-3-6-6l0-13c0-4 2-6 6-6l32 0 0-25-32 0c-3 0-4-3-5-5l26-20 11 0 0-9 37-29 0 113c0 41-34 75-75 75-40 0-73-31-75-71l37-29z"/>
<glyph glyph-name="paper-plane" unicode="&#41;" d="M477 508l-445-256c-17-10-15-35 2-41l103-44 275 243c5 5 13-2 8-7l-231-282 0-77c0-24 27-32 41-16l61 75 119-51c14-6 30 3 32 18l69 415c4 19-17 33-34 23z"/>
<glyph glyph-name="paperclip" unicode="&#42;" d="M363 512c-33 0-66-12-91-37l-218-218c-4-5-4-12 0-17l6-6c5-4 12-4 17 0l218 218c38 38 99 38 137 0 38-38 38-99 0-137l-262-262c-27-27-71-27-97 0-27 26-27 70 0 97l222 223c16 15 42 15 58 0 15-16 15-42 0-58l-171-170c-4-5-4-12 0-17l6-6c5-4 12-4 17 0l170 171c29 28 29 74 0 102-28 29-74 29-102 0l-223-222c-39-40-39-104 0-143 39-39 103-39 143 0l262 262c50 50 50 132 0 183-25 25-59 37-92 37z"/>
<glyph glyph-name="stop" unicode="&#43;" d="M254 503c-138 0-250-111-250-249 0-138 112-250 250-250 138 0 249 112 249 250 0 138-111 249-249 249z m99-331c0-9-9-17-17-17l-164 0c-9 0-17 8-17 17l0 164c0 8 8 17 17 17l164 0c8 0 17-9 17-17z"/>
</font>
</defs>
</svg>
