<svg width="16" height="14" viewBox="0 0 16 14" fill="none" xmlns="http://www.w3.org/2000/svg">
<path d="M15.3281 2.60938C15.5391 2.60938 15.75 2.43359 15.75 2.1875V1.0625C15.75 0.851562 15.5391 0.640625 15.3281 0.640625H0.421875C0.175781 0.640625 0 0.851562 0 1.0625V2.1875C0 2.43359 0.175781 2.60938 0.421875 2.60938H15.3281ZM15.3281 8.23438C15.5391 8.23438 15.75 8.05859 15.75 7.8125V6.6875C15.75 6.47656 15.5391 6.26562 15.3281 6.26562H0.421875C0.175781 6.26562 0 6.47656 0 6.6875V7.8125C0 8.05859 0.175781 8.23438 0.421875 8.23438H15.3281ZM15.3281 13.8594C15.5391 13.8594 15.75 13.6836 15.75 13.4375V12.3125C15.75 12.1016 15.5391 11.8906 15.3281 11.8906H0.421875C0.175781 11.8906 0 12.1016 0 12.3125V13.4375C0 13.6836 0.175781 13.8594 0.421875 13.8594H15.3281Z" fill="#9E9E9E"/>
</svg>
