<svg width="14" height="13" viewBox="0 0 14 13" fill="none" xmlns="http://www.w3.org/2000/svg">
<path d="M9.08594 6.5L13.3047 2.32031C13.5391 2.08594 13.5391 1.65625 13.3047 1.42188L12.3281 0.445312C12.0938 0.210938 11.6641 0.210938 11.4297 0.445312L7.25 4.66406L3.03125 0.445312C2.79688 0.210938 2.36719 0.210938 2.13281 0.445312L1.15625 1.42188C0.921875 1.65625 0.921875 2.08594 1.15625 2.32031L5.375 6.5L1.15625 10.7188C0.921875 10.9531 0.921875 11.3828 1.15625 11.6172L2.13281 12.5938C2.36719 12.8281 2.79688 12.8281 3.03125 12.5938L7.25 8.375L11.4297 12.5938C11.6641 12.8281 12.0938 12.8281 12.3281 12.5938L13.3047 11.6172C13.5391 11.3828 13.5391 10.9531 13.3047 10.7188L9.08594 6.5Z" fill="#9E9E9E"/>
</svg>
