<svg width="21" height="15" viewBox="0 0 21 15" fill="none" xmlns="http://www.w3.org/2000/svg">
<path d="M13.6445 7.72322C13.9843 7.72322 14.2598 7.43781 14.2598 7.08573C14.2598 6.73366 13.9843 6.44824 13.6445 6.44824C13.3048 6.44824 13.0293 6.73366 13.0293 7.08573C13.0293 7.43781 13.3048 7.72322 13.6445 7.72322Z" fill="url(#paint0_linear)"/>
<path d="M3.74916 6.73146C4.3084 6.17047 5.14533 5.8034 6.15538 5.69371C6.56316 5.64943 6.96782 5.64208 7.35911 5.63494C7.92586 5.62465 8.46119 5.61492 8.96782 5.49856C9.9919 5.26328 10.9076 4.55571 11.4173 3.60572C11.9246 2.66024 12.0227 1.48747 11.6808 0.465367L11.5292 0.0810885C11.1936 0.0277094 10.8499 0 10.5 0C6.86159 4.24993e-05 3.88627 2.9956 3.74916 6.73146Z" fill="url(#paint1_linear)"/>
<path d="M10.5 14.0014C12.5318 14.0014 14.3569 13.0672 15.5965 11.5916C14.0837 12.0048 12.3292 12.2264 10.5 12.2264C8.67078 12.2264 6.9163 12.0048 5.40348 11.5916C6.6431 13.0672 8.46817 14.0014 10.5 14.0014Z" fill="url(#paint2_linear)"/>
<path d="M21 6.42015C21 5.10225 19.8347 3.91758 17.7186 3.08438C17.6428 3.05455 17.5656 3.02518 17.4873 2.9962C17.7706 3.52485 17.9997 4.08873 18.1666 4.67989C19.1847 5.21904 19.7695 5.84233 19.7695 6.42015C19.7695 6.94714 19.2839 7.51157 18.4267 8.0157C18.095 8.21073 17.7079 8.39671 17.2716 8.56802C17.2045 8.59437 17.1363 8.62013 17.0675 8.64558C17.1906 8.11783 17.2563 7.56712 17.2563 7.00078C17.2563 4.04228 15.476 1.5066 12.9671 0.483387C13.2642 1.73265 13.0965 3.09994 12.4927 4.22532C11.8147 5.48908 10.5965 6.43044 9.23413 6.7434C8.60664 6.88756 7.9834 6.89886 7.38068 6.90983C6.99887 6.91676 6.6383 6.9233 6.28364 6.96185C5.82906 7.01123 4.73009 7.21196 4.34466 8.0078C4.22678 8.25119 4.17182 8.4996 4.15095 8.72391C4.00682 8.67376 3.8656 8.62195 3.72836 8.56806C3.29208 8.39679 2.90493 8.21077 2.57332 8.01574C1.71609 7.51158 1.23047 6.94714 1.23047 6.42015C1.23047 5.84288 1.82081 5.21925 2.83287 4.68163C2.99988 4.08979 3.22912 3.52531 3.51274 2.99611C1.24495 3.83539 0 5.04607 0 6.42015C0 6.95658 0.192979 7.47082 0.564498 7.9483C0.634266 8.03797 0.711129 8.1262 0.793406 8.2132C1.35138 8.80309 2.1938 9.32897 3.29245 9.76025C4.56225 10.2588 6.10111 10.6103 7.77578 10.793C7.93529 10.8105 8.92094 10.9513 10.5 10.9513C12.0791 10.9513 13.0648 10.8104 13.2243 10.793C14.899 10.6103 16.4378 10.2587 17.7076 9.76025C18.8062 9.32897 19.6487 8.80304 20.2067 8.2132C20.289 8.1262 20.3658 8.03801 20.4356 7.9483C20.807 7.47082 21 6.95654 21 6.42015ZM13.6445 5.17327C14.6623 5.17327 15.4902 6.0312 15.4902 7.08573C15.4902 8.14027 14.6623 8.9982 13.6445 8.9982C12.6268 8.9982 11.7988 8.14027 11.7988 7.08573C11.7988 6.0312 12.6268 5.17327 13.6445 5.17327Z" fill="url(#paint3_linear)"/>
<defs>
<linearGradient id="paint0_linear" x1="-2.34693e-07" y1="14.0014" x2="21.9252" y2="12.3602" gradientUnits="userSpaceOnUse">
<stop stop-color="#2F2BE0"/>
<stop offset="1" stop-color="#E64253"/>
</linearGradient>
<linearGradient id="paint1_linear" x1="-2.34693e-07" y1="14.0014" x2="21.9252" y2="12.3602" gradientUnits="userSpaceOnUse">
<stop stop-color="#2F2BE0"/>
<stop offset="1" stop-color="#E64253"/>
</linearGradient>
<linearGradient id="paint2_linear" x1="-2.34693e-07" y1="14.0014" x2="21.9252" y2="12.3602" gradientUnits="userSpaceOnUse">
<stop stop-color="#2F2BE0"/>
<stop offset="1" stop-color="#E64253"/>
</linearGradient>
<linearGradient id="paint3_linear" x1="-2.34693e-07" y1="14.0014" x2="21.9252" y2="12.3602" gradientUnits="userSpaceOnUse">
<stop stop-color="#2F2BE0"/>
<stop offset="1" stop-color="#E64253"/>
</linearGradient>
</defs>
</svg>
