<svg width="6" height="20" viewBox="0 0 6 20" fill="none" xmlns="http://www.w3.org/2000/svg">
<path d="M3 7.75C1.73438 7.75 0.75 8.78125 0.75 10C0.75 11.2656 1.73438 12.25 3 12.25C4.21875 12.25 5.25 11.2656 5.25 10C5.25 8.78125 4.21875 7.75 3 7.75ZM0.75 2.875C0.75 4.14062 1.73438 5.125 3 5.125C4.21875 5.125 5.25 4.14062 5.25 2.875C5.25 1.65625 4.21875 0.625 3 0.625C1.73438 0.625 0.75 1.65625 0.75 2.875ZM0.75 17.125C0.75 18.3906 1.73438 19.375 3 19.375C4.21875 19.375 5.25 18.3906 5.25 17.125C5.25 15.9062 4.21875 14.875 3 14.875C1.73438 14.875 0.75 15.9062 0.75 17.125Z" fill="#898989"/>
</svg>
