<svg width="15" height="16" viewBox="0 0 15 16" fill="none" xmlns="http://www.w3.org/2000/svg">
<path d="M14.7949 1.46094C14.7363 1.28516 14.5898 1.13867 14.4141 1.08008C13.4766 0.875 12.7441 0.875 12.0117 0.875C8.99414 0.875 7.17773 2.51562 5.83008 4.625H2.75391C2.28516 4.6543 1.72852 4.97656 1.49414 5.41602L0.0585938 8.31641C0.0292969 8.4043 0 8.52148 0 8.60938C0 9.01953 0.292969 9.3125 0.703125 9.3125H3.7207L3.07617 9.98633C2.72461 10.3086 2.69531 10.9238 3.07617 11.3047L4.57031 12.7988C4.89258 13.1211 5.50781 13.1797 5.88867 12.7988L6.5332 12.1543V15.1719C6.5625 15.582 6.85547 15.875 7.26562 15.875C7.35352 15.875 7.4707 15.8457 7.55859 15.8164L10.459 14.3809C10.8984 14.1465 11.2207 13.5898 11.2207 13.1211V10.0449C13.3594 8.69727 14.9707 6.88086 14.9707 3.86328C15 3.13086 15 2.39844 14.7949 1.46094ZM11.25 5.79688C10.5762 5.79688 10.0781 5.29883 10.0781 4.625C10.0781 3.98047 10.5762 3.45312 11.25 3.45312C11.8945 3.45312 12.4219 3.98047 12.4219 4.625C12.4219 5.29883 11.8945 5.79688 11.25 5.79688Z" fill="#9E9E9E"/>
</svg>
