<svg width="17" height="16" viewBox="0 0 17 16" fill="none" xmlns="http://www.w3.org/2000/svg">
<path d="M8.5 0.1875C3.78516 0.1875 0 4.00586 0 8.6875V10.2812C0 10.6465 0.232422 11.0781 0.564453 11.2441L1.0625 11.4766C1.12891 13.4688 2.75586 15.0625 4.78125 15.0625H5.57812C6.00977 15.0625 6.375 14.7305 6.375 14.2656V8.42188C6.375 7.99023 6.00977 7.625 5.57812 7.625H4.78125C3.71875 7.625 2.78906 8.05664 2.125 8.75391V8.6875C2.125 5.20117 4.98047 2.3125 8.5 2.3125C11.9863 2.3125 14.875 5.20117 14.875 8.6875V8.75391C14.1777 8.05664 13.248 7.625 12.2188 7.625H11.4219C10.957 7.625 10.625 7.99023 10.625 8.42188V14.2656C10.625 14.7305 10.957 15.0625 11.4219 15.0625H12.2188C14.2109 15.0625 15.8379 13.4688 15.9043 11.4766L16.4023 11.2441C16.7344 11.0781 17 10.6465 17 10.2812V8.6875C17 4.00586 13.1816 0.1875 8.5 0.1875Z" fill="url(#paint0_linear)"/>
<defs>
<linearGradient id="paint0_linear" x1="-1.8999e-07" y1="16" x2="17.8041" y2="15.1114" gradientUnits="userSpaceOnUse">
<stop stop-color="#00F6B4"/>
<stop offset="1" stop-color="#00FF85"/>
</linearGradient>
</defs>
</svg>
