<svg width="15" height="14" viewBox="0 0 15 14" fill="none" xmlns="http://www.w3.org/2000/svg">
<path d="M7.5 0.8125C3.33984 0.8125 0 4.18164 0 8.3125V9.71875C0 10.041 0.205078 10.4219 0.498047 10.5684L0.9375 10.7734C0.996094 12.5312 2.43164 13.9375 4.21875 13.9375H4.92188C5.30273 13.9375 5.625 13.6445 5.625 13.2344V8.07812C5.625 7.69727 5.30273 7.375 4.92188 7.375H4.21875C3.28125 7.375 2.46094 7.75586 1.875 8.37109V8.3125C1.875 5.23633 4.39453 2.6875 7.5 2.6875C10.5762 2.6875 13.125 5.23633 13.125 8.3125V8.37109C12.5098 7.75586 11.6895 7.375 10.7812 7.375H10.0781C9.66797 7.375 9.375 7.69727 9.375 8.07812V13.2344C9.375 13.6445 9.66797 13.9375 10.0781 13.9375H10.7812C12.5391 13.9375 13.9746 12.5312 14.0332 10.7734L14.4727 10.5684C14.7656 10.4219 15 10.041 15 9.71875V8.3125C15 4.18164 11.6309 0.8125 7.5 0.8125Z" fill="#9E9E9E"/>
</svg>
