<svg width="17" height="16" viewBox="0 0 17 16" fill="none" xmlns="http://www.w3.org/2000/svg">
<path d="M8.5 4.24414L2.08398 9.89844C2.02539 9.95703 1.9668 9.95703 1.9375 10.0156V15.4062C1.9375 15.6699 2.14258 15.875 2.40625 15.875H6.15625C6.39062 15.875 6.625 15.6699 6.625 15.4062V11.6562C6.625 11.4219 6.83008 11.1875 7.09375 11.1875H9.90625C10.1406 11.1875 10.375 11.4219 10.375 11.6562V15.4062C10.375 15.6699 10.5801 15.875 10.8438 15.875H14.5938C14.8281 15.875 15.0625 15.6699 15.0625 15.4062V10.0156C15.0039 9.95703 14.9453 9.95703 14.8867 9.89844L8.5 4.24414ZM16.7617 7.81836L9.26172 1.19727C9.08594 1.02148 8.73438 0.875 8.5 0.875C8.23633 0.875 7.88477 1.02148 7.70898 1.19727L0.208984 7.81836C0.121094 7.87695 0.0332031 8.05273 0.0332031 8.16992C0.0332031 8.25781 0.0917969 8.4043 0.179688 8.46289L0.794922 9.16602C0.882812 9.25391 1.0293 9.3418 1.14648 9.3418C1.23438 9.3418 1.38086 9.2832 1.46875 9.19531L8.17773 3.27734C8.23633 3.21875 8.38281 3.16016 8.5 3.16016C8.58789 3.16016 8.73438 3.21875 8.79297 3.27734L15.502 9.19531C15.5898 9.2832 15.7363 9.3125 15.8242 9.3125C15.9414 9.3125 16.0879 9.25391 16.1758 9.16602L16.791 8.46289C16.8789 8.4043 16.9375 8.25781 16.9375 8.16992C16.9375 8.05273 16.8496 7.87695 16.7617 7.81836Z" fill="#9E9E9E"/>
</svg>
