<svg width="18" height="19" viewBox="0 0 18 19" fill="none" xmlns="http://www.w3.org/2000/svg">
<path d="M9.38672 7.70312C8.50781 8.54688 7.94531 9.70703 7.94531 11.043C7.94531 12.0625 8.29688 13.0117 8.85938 13.7852L7.13672 15.5078C6.96094 15.4727 6.82031 15.4375 6.64453 15.4375C6.25781 15.4375 5.90625 15.5781 5.625 15.8594C5.37891 16.1055 5.20312 16.4922 5.20312 16.8438C5.20312 17.2305 5.37891 17.582 5.625 17.8633C5.90625 18.1094 6.25781 18.25 6.64453 18.25C6.99609 18.25 7.38281 18.1445 7.62891 17.8633C7.91016 17.582 8.05078 17.2305 8.05078 16.8438C8.05078 16.7031 8.01562 16.5625 7.98047 16.4219L9.73828 14.6641C10.5117 15.2617 11.4961 15.6133 12.5156 15.6133C15.0469 15.6133 17.0859 13.5742 17.0859 11.043C17.0859 8.75781 15.4336 6.85938 13.2188 6.50781V4.32812C13.8516 4.08203 14.2031 3.51953 14.2031 2.85156C14.2031 1.90234 13.5 1.16406 12.5508 1.16406C11.6367 1.16406 10.9336 1.90234 10.9336 2.85156C10.9336 3.51953 11.2852 4.08203 11.918 4.32812V6.50781C11.3906 6.57812 10.8633 6.71875 10.4062 6.96484C9.45703 6.22656 6.29297 3.97656 4.46484 2.57031C4.53516 2.42969 4.53516 2.25391 4.53516 2.11328C4.53516 1.09375 3.72656 0.25 2.70703 0.25C1.6875 0.25 0.878906 1.09375 0.878906 2.11328C0.878906 3.13281 1.6875 3.94141 2.70703 3.94141C3.05859 3.94141 3.375 3.83594 3.65625 3.66016L9.38672 7.70312ZM12.5156 13.4688C11.1797 13.4688 10.0898 12.3789 10.0898 11.043C10.0898 9.70703 11.1797 8.61719 12.5156 8.61719C13.8867 8.61719 14.9414 9.70703 14.9414 11.043C14.9414 12.3789 13.8867 13.4688 12.5156 13.4688Z" fill="#9E9E9E"/>
</svg>
