<svg width="13" height="18" viewBox="0 0 13 18" fill="none" xmlns="http://www.w3.org/2000/svg">
<path d="M5.83594 16.793C6.13477 17.2578 6.83203 17.2578 7.13086 16.793C11.9785 9.82031 12.875 9.08984 12.875 6.5C12.875 2.98047 10.0195 0.125 6.5 0.125C2.94727 0.125 0.125 2.98047 0.125 6.5C0.125 9.08984 0.988281 9.82031 5.83594 16.793ZM6.5 9.15625C5.00586 9.15625 3.84375 7.99414 3.84375 6.5C3.84375 5.03906 5.00586 3.84375 6.5 3.84375C7.96094 3.84375 9.15625 5.03906 9.15625 6.5C9.15625 7.99414 7.96094 9.15625 6.5 9.15625Z" fill="url(#paint0_linear)"/>
<defs>
<linearGradient id="paint0_linear" x1="-1.45286e-07" y1="17" x2="13.629" y2="16.4798" gradientUnits="userSpaceOnUse">
<stop stop-color="#00F6B4"/>
<stop offset="1" stop-color="#00FF85"/>
</linearGradient>
</defs>
</svg>
