<svg width="15" height="16" viewBox="0 0 15 16" fill="none" xmlns="http://www.w3.org/2000/svg">
<path d="M3.04688 7.4375H0.703125C0.292969 7.4375 0 7.75977 0 8.14062V15.1719C0 15.582 0.292969 15.875 0.703125 15.875H3.04688C3.42773 15.875 3.75 15.582 3.75 15.1719V8.14062C3.75 7.75977 3.42773 7.4375 3.04688 7.4375ZM1.875 14.7031C1.46484 14.7031 1.17188 14.4102 1.17188 14C1.17188 13.6191 1.46484 13.2969 1.875 13.2969C2.25586 13.2969 2.57812 13.6191 2.57812 14C2.57812 14.4102 2.25586 14.7031 1.875 14.7031ZM11.25 3.27734C11.25 1.10938 9.84375 0.875 9.14062 0.875C8.52539 0.875 8.26172 2.04688 8.14453 2.57422C7.96875 3.21875 7.82227 3.86328 7.38281 4.30273C6.44531 5.26953 5.94727 6.4707 4.77539 7.61328C4.7168 7.70117 4.6875 7.78906 4.6875 7.87695V14.1465C4.6875 14.3223 4.83398 14.4688 5.00977 14.498C5.47852 14.498 6.09375 14.7617 6.5625 14.9668C7.5 15.377 8.64258 15.875 10.0488 15.875H10.1367C11.3965 15.875 12.8906 15.875 13.4766 15.0254C13.7402 14.6738 13.7988 14.2344 13.6523 13.707C14.1504 13.209 14.3848 12.2715 14.1504 11.5098C14.6484 10.8359 14.707 9.86914 14.4141 9.19531C14.7656 8.84375 15 8.28711 14.9707 7.75977C14.9707 6.85156 14.209 6.03125 13.2422 6.03125H10.2539C10.4883 5.21094 11.25 4.50781 11.25 3.27734Z" fill="url(#paint0_linear)"/>
<defs>
<linearGradient id="paint0_linear" x1="-1.67638e-07" y1="16" x2="15.7095" y2="15.2159" gradientUnits="userSpaceOnUse">
<stop stop-color="#00F6B4"/>
<stop offset="1" stop-color="#00FF85"/>
</linearGradient>
</defs>
</svg>
