<svg width="17" height="18" viewBox="0 0 17 18" fill="none" xmlns="http://www.w3.org/2000/svg">
<path d="M16.7676 0.789062C16.7012 0.589844 16.5352 0.423828 16.3359 0.357422C15.2734 0.125 14.4434 0.125 13.6133 0.125C10.1934 0.125 8.13477 1.98438 6.60742 4.375H3.12109C2.58984 4.4082 1.95898 4.77344 1.69336 5.27148L0.0664062 8.55859C0.0332031 8.6582 0 8.79102 0 8.89062C0 9.35547 0.332031 9.6875 0.796875 9.6875H4.2168L3.48633 10.4512C3.08789 10.8164 3.05469 11.5137 3.48633 11.9453L5.17969 13.6387C5.54492 14.0039 6.24219 14.0703 6.67383 13.6387L7.4043 12.9082V16.3281C7.4375 16.793 7.76953 17.125 8.23438 17.125C8.33398 17.125 8.4668 17.0918 8.56641 17.0586L11.8535 15.4316C12.3516 15.166 12.7168 14.5352 12.7168 14.0039V10.5176C15.1406 8.99023 16.9668 6.93164 16.9668 3.51172C17 2.68164 17 1.85156 16.7676 0.789062ZM12.75 5.70312C11.9863 5.70312 11.4219 5.13867 11.4219 4.375C11.4219 3.64453 11.9863 3.04688 12.75 3.04688C13.4805 3.04688 14.0781 3.64453 14.0781 4.375C14.0781 5.13867 13.4805 5.70312 12.75 5.70312Z" fill="url(#paint0_linear)"/>
<defs>
<linearGradient id="paint0_linear" x1="-1.8999e-07" y1="17" x2="17.8041" y2="16.1114" gradientUnits="userSpaceOnUse">
<stop stop-color="#00F6B4"/>
<stop offset="1" stop-color="#00FF85"/>
</linearGradient>
</defs>
</svg>
