<svg width="72" height="72" viewBox="0 0 72 72" fill="none" xmlns="http://www.w3.org/2000/svg">
<path d="M51.75 12.5156C47.3906 12.5156 43.875 16.0312 43.875 20.3906C43.875 24.6094 47.3906 28.2656 51.75 28.2656C55.9688 28.2656 59.625 24.6094 59.625 20.3906C59.625 16.0312 55.9688 12.5156 51.75 12.5156ZM51.75 23.7656C49.7812 23.7656 48.375 22.2188 48.375 20.3906C48.375 18.4219 49.7812 17.0156 51.75 17.0156C53.5781 17.0156 55.125 18.4219 55.125 20.3906C55.125 22.2188 53.5781 23.7656 51.75 23.7656ZM71.0156 2.8125C70.7344 1.96875 70.0312 1.26562 69.1875 0.984375C64.6875 0 61.1719 0 57.6562 0C43.1719 0 34.4531 7.875 27.9844 18H13.3594C10.9688 18 8.29688 19.6875 7.3125 21.7969L0.28125 35.7188C0.140625 36.1406 0 36.7031 0 37.125C0 39.0938 1.40625 40.5 3.375 40.5H18C25.4531 40.5 31.5 46.5469 31.5 54V68.625C31.5 70.5938 32.9062 72 34.875 72C35.2969 72 36 71.8594 36.2812 71.7188L50.2031 64.8281C52.3125 63.7031 54 61.0312 54 58.7812V44.0156C64.125 37.5469 71.8594 28.8281 71.8594 14.3438C72 10.8281 72 7.3125 71.0156 2.8125ZM5.20312 36L11.25 23.7656C11.5312 23.3438 12.6562 22.5 13.3594 22.5H25.3125C23.3438 26.5781 20.8125 31.5 18.5625 36V36.1406C18.4219 36.1406 8.57812 36 5.20312 36ZM49.5 58.7812C49.5 59.3438 48.6562 60.4688 48.2344 60.75L36 66.9375C36 63.5625 35.8594 53.5781 35.8594 53.4375H36C40.5 51.1875 45.4219 48.6562 49.3594 46.6875H49.5V58.7812ZM35.0156 48.7969C33.4688 43.7344 28.2656 38.5312 23.2031 36.9844C30.5156 22.3594 37.2656 4.5 57.6562 4.5C60.6094 4.5 63.4219 4.5 66.7969 5.20312C67.5 8.57812 67.5 11.3906 67.3594 14.3438C67.3594 34.7344 49.6406 41.625 35.0156 48.7969ZM14.3438 45C7.59375 45 0.28125 50.625 0 67.5V72H4.5C28.5469 71.5781 30.375 55.8281 23.2031 48.6562C21.0938 46.5469 17.8594 45 14.3438 45ZM21.7969 60.4688C19.9688 64.8281 13.6406 67.3594 4.35938 67.5C4.5 67.0781 4.21875 49.6406 14.3438 49.6406C16.4531 49.6406 18.7031 50.4844 20.1094 51.8906C21.9375 53.5781 23.0625 57.2344 21.7969 60.4688Z" fill="url(#paint0_linear)"/>
<path d="M71.0156 2.8125L72.481 2.49195L72.4639 2.41393L72.4387 2.33816L71.0156 2.8125ZM69.1875 0.984375L69.6618 -0.43865L69.5861 -0.463907L69.508 -0.480975L69.1875 0.984375ZM27.9844 18V19.5H28.806L29.2484 18.8076L27.9844 18ZM7.3125 21.7969L8.65143 22.4731L8.66193 22.4523L8.67177 22.4312L7.3125 21.7969ZM0.28125 35.7188L-1.05768 35.0425L-1.1071 35.1404L-1.14177 35.2444L0.28125 35.7188ZM36.2812 71.7188L35.6159 70.3744L35.6104 70.3771L36.2812 71.7188ZM50.2031 64.8281L50.8685 66.1725L50.8889 66.1624L50.909 66.1517L50.2031 64.8281ZM54 44.0156L53.1924 42.7516L52.5 43.194V44.0156H54ZM71.8594 14.3438L70.3606 14.2838L70.3594 14.3138V14.3438H71.8594ZM5.20312 36L3.85841 35.3354L2.78853 37.5H5.20312V36ZM11.25 23.7656L10.0019 22.9336L9.9482 23.0142L9.90528 23.101L11.25 23.7656ZM25.3125 22.5L26.6633 23.1521L27.7023 21H25.3125V22.5ZM18.5625 36L17.2209 35.3292L17.0625 35.6459V36H18.5625ZM18.5625 36.1406V37.6406H20.0625V36.1406H18.5625ZM48.2344 60.75L48.9113 62.0886L48.9916 62.048L49.0664 61.9981L48.2344 60.75ZM36 66.9375H34.5V69.377L36.677 68.276L36 66.9375ZM35.8594 53.4375V51.9375H34.3594V53.4375H35.8594ZM36 53.4375V54.9375H36.3541L36.6708 54.7791L36 53.4375ZM49.3594 46.6875V45.1875H49.0053L48.6886 45.3459L49.3594 46.6875ZM49.5 46.6875H51V45.1875H49.5V46.6875ZM35.0156 48.7969L33.5811 49.2352L34.0955 50.9187L35.6761 50.1437L35.0156 48.7969ZM23.2031 36.9844L21.8615 36.3136L21.068 37.9004L22.7648 38.4189L23.2031 36.9844ZM66.7969 5.20312L68.2653 4.89719L68.0649 3.93509L67.1028 3.73465L66.7969 5.20312ZM67.3594 14.3438L65.8611 14.2724L65.8594 14.3081V14.3438H67.3594ZM0 67.5L-1.49979 67.475L-1.5 67.4875V67.5H0ZM0 72H-1.5V73.5H0V72ZM4.5 72V73.5H4.51316L4.52631 73.4998L4.5 72ZM21.7969 60.4688L23.1802 61.0488L23.1872 61.0322L23.1937 61.0154L21.7969 60.4688ZM4.35938 67.5L2.93635 67.0257L2.26761 69.0319L4.3821 68.9998L4.35938 67.5ZM20.1094 51.8906L19.0487 52.9513L19.0699 52.9725L19.092 52.9928L20.1094 51.8906ZM51.75 11.0156C46.5622 11.0156 42.375 15.2028 42.375 20.3906H45.375C45.375 16.8597 48.2191 14.0156 51.75 14.0156V11.0156ZM42.375 20.3906C42.375 25.4204 46.5449 29.7656 51.75 29.7656V26.7656C48.2364 26.7656 45.375 23.7984 45.375 20.3906H42.375ZM51.75 29.7656C56.7972 29.7656 61.125 25.4378 61.125 20.3906H58.125C58.125 23.7809 55.1403 26.7656 51.75 26.7656V29.7656ZM61.125 20.3906C61.125 15.1855 56.7798 11.0156 51.75 11.0156V14.0156C55.1577 14.0156 58.125 16.877 58.125 20.3906H61.125ZM51.75 22.2656C50.6504 22.2656 49.875 21.4316 49.875 20.3906H46.875C46.875 23.0059 48.9121 25.2656 51.75 25.2656V22.2656ZM49.875 20.3906C49.875 19.2503 50.6097 18.5156 51.75 18.5156V15.5156C48.9528 15.5156 46.875 17.5934 46.875 20.3906H49.875ZM51.75 18.5156C52.791 18.5156 53.625 19.291 53.625 20.3906H56.625C56.625 17.5528 54.3653 15.5156 51.75 15.5156V18.5156ZM53.625 20.3906C53.625 21.3903 52.7497 22.2656 51.75 22.2656V25.2656C54.4066 25.2656 56.625 23.0472 56.625 20.3906H53.625ZM72.4387 2.33816C72.0081 1.0465 70.9535 -0.00809745 69.6618 -0.43865L68.7132 2.4074C69.109 2.53935 69.4607 2.891 69.5926 3.28684L72.4387 2.33816ZM69.508 -0.480975C64.8359 -1.50302 61.1778 -1.5 57.6562 -1.5V1.5C61.166 1.5 64.5391 1.50302 68.867 2.44972L69.508 -0.480975ZM57.6562 -1.5C42.4682 -1.5 33.3425 6.82725 26.7203 17.1924L29.2484 18.8076C35.5637 8.92275 43.8755 1.5 57.6562 1.5V-1.5ZM27.9844 16.5H13.3594V19.5H27.9844V16.5ZM13.3594 16.5C11.8285 16.5 10.2898 17.0327 9.00992 17.8377C7.73171 18.6418 6.59245 19.7928 5.95323 21.1625L8.67177 22.4312C9.01692 21.6916 9.70579 20.9442 10.6073 20.3771C11.5071 19.8111 12.4997 19.5 13.3594 19.5V16.5ZM5.97358 21.1206L-1.05768 35.0425L1.62018 36.395L8.65143 22.4731L5.97358 21.1206ZM-1.14177 35.2444C-1.29624 35.7078 -1.5 36.4559 -1.5 37.125H1.5C1.5 36.9503 1.57749 36.5734 1.70427 36.1931L-1.14177 35.2444ZM-1.5 37.125C-1.5 39.9222 0.577823 42 3.375 42V39C2.23468 39 1.5 38.2653 1.5 37.125H-1.5ZM3.375 42H18V39H3.375V42ZM18 42C24.6247 42 30 47.3753 30 54H33C33 45.7184 26.2816 39 18 39V42ZM30 54V68.625H33V54H30ZM30 68.625C30 71.4222 32.0778 73.5 34.875 73.5V70.5C33.7347 70.5 33 69.7653 33 68.625H30ZM34.875 73.5C35.2199 73.5 35.6065 73.4467 35.925 73.383C36.2169 73.3246 36.6253 73.2238 36.9521 73.0604L35.6104 70.3771C35.654 70.3553 35.653 70.3612 35.5789 70.383C35.5168 70.4013 35.4333 70.4219 35.3367 70.4412C35.1279 70.483 34.952 70.5 34.875 70.5V73.5ZM36.9466 73.0631L50.8685 66.1725L49.5377 63.4838L35.6159 70.3744L36.9466 73.0631ZM50.909 66.1517C52.2352 65.4444 53.3648 64.2931 54.1623 63.0252C54.9567 61.7623 55.5 60.2579 55.5 58.7812H52.5C52.5 59.5546 52.1995 60.5112 51.6229 61.4279C51.0493 62.3397 50.2804 63.0869 49.4972 63.5046L50.909 66.1517ZM55.5 58.7812V44.0156H52.5V58.7812H55.5ZM54.8076 45.2797C65.184 38.6503 73.3594 29.5222 73.3594 14.3438H70.3594C70.3594 28.1341 63.066 36.4435 53.1924 42.7516L54.8076 45.2797ZM73.3582 14.4037C73.501 10.832 73.5046 7.17153 72.481 2.49195L69.5503 3.13305C70.4954 7.45347 70.499 10.8242 70.3606 14.2838L73.3582 14.4037ZM6.54784 36.6646L12.5947 24.4303L9.90528 23.101L3.85841 35.3354L6.54784 36.6646ZM12.4981 24.5977C12.4648 24.6476 12.479 24.6147 12.5949 24.5119C12.6938 24.4241 12.8236 24.3238 12.9659 24.231C13.1101 24.1369 13.2413 24.0675 13.3424 24.026C13.4602 23.9777 13.457 24 13.3594 24V21C12.9102 21 12.5027 21.1278 12.203 21.2508C11.8866 21.3807 11.5871 21.5486 11.3271 21.7182C10.8583 22.0239 10.3088 22.4733 10.0019 22.9336L12.4981 24.5977ZM13.3594 24H25.3125V21H13.3594V24ZM23.9617 21.8479C21.9984 25.9147 19.4831 30.8047 17.2209 35.3292L19.9041 36.6708C22.1419 32.1953 24.6891 27.2416 26.6633 23.1521L23.9617 21.8479ZM17.0625 36V36.1406H20.0625V36H17.0625ZM18.5625 34.6406C18.5663 34.6406 18.5346 34.6403 18.4455 34.6392C18.3653 34.6381 18.2511 34.6366 18.1065 34.6347C17.8176 34.6309 17.4079 34.6254 16.9102 34.6188C15.9146 34.6056 14.5649 34.588 13.1139 34.5704C10.216 34.5353 6.90154 34.5 5.20312 34.5V37.5C6.87971 37.5 10.1746 37.535 13.0775 37.5702C15.9611 37.6052 18.4803 37.6406 18.5625 37.6406V34.6406ZM48 58.7812C48 58.6735 48.0186 58.6109 48.0187 58.6105C48.0203 58.605 48.0153 58.6233 47.9955 58.6671C47.9548 58.7567 47.8839 58.8825 47.786 59.0261C47.69 59.167 47.5862 59.2982 47.4952 59.3994C47.388 59.5184 47.3541 59.5341 47.4023 59.5019L49.0664 61.9981C49.5211 61.6949 49.9686 61.1504 50.2647 60.7161C50.4305 60.4729 50.5969 60.1944 50.7277 59.9061C50.8431 59.6516 51 59.2423 51 58.7812H48ZM47.5574 59.4114L35.323 65.599L36.677 68.276L48.9113 62.0886L47.5574 59.4114ZM37.5 66.9375C37.5 65.2392 37.4647 61.8896 37.4296 58.9566C37.412 57.4881 37.3944 56.1208 37.3812 55.112C37.3746 54.6078 37.3691 54.1926 37.3653 53.8998C37.3634 53.7533 37.3619 53.6375 37.3608 53.5563C37.3597 53.4662 37.3594 53.4339 37.3594 53.4375H34.3594C34.3594 53.5196 34.3948 56.0736 34.4298 58.9926C34.465 61.9307 34.5 65.2608 34.5 66.9375H37.5ZM35.8594 54.9375H36V51.9375H35.8594V54.9375ZM36.6708 54.7791C38.9256 53.6518 41.2851 52.4544 43.5697 51.2945C45.8562 50.1337 48.0664 49.011 50.0302 48.0291L48.6886 45.3459C46.7148 46.3327 44.4954 47.4601 42.2116 48.6195C39.9259 49.78 37.5744 50.9732 35.3292 52.0959L36.6708 54.7791ZM49.3594 48.1875H49.5V45.1875H49.3594V48.1875ZM48 46.6875V58.7812H51V46.6875H48ZM36.4502 48.3585C35.5885 45.5385 33.7443 42.7675 31.4884 40.5116C29.2325 38.2557 26.4615 36.4115 23.6415 35.5498L22.7648 38.4189C25.0073 39.1041 27.3691 40.6349 29.3671 42.6329C31.3651 44.6309 32.8959 46.9927 33.5811 49.2352L36.4502 48.3585ZM24.5448 37.6552C28.2598 30.225 31.6738 22.3322 36.6862 16.2078C41.6133 10.1877 47.9998 6 57.6562 6V3C46.9221 3 39.7382 7.74204 34.3646 14.3078C29.0762 20.7693 25.4589 29.1187 21.8615 36.3136L24.5448 37.6552ZM57.6562 6C60.6137 6 63.2846 6.00361 66.4909 6.6716L67.1028 3.73465C63.5592 2.99639 60.605 3 57.6562 3V6ZM65.3284 5.50906C65.9942 8.70503 65.9991 11.3736 65.8611 14.2724L68.8577 14.4151C69.0009 11.4077 69.0058 8.45122 68.2653 4.89719L65.3284 5.50906ZM65.8594 14.3438C65.8594 24.0065 61.701 30.4287 55.7167 35.3708C49.6337 40.3944 41.7719 43.8131 34.3552 47.4501L35.6761 50.1437C42.8844 46.6088 51.1945 42.9962 57.627 37.6839C64.1584 32.29 68.8594 25.0717 68.8594 14.3438H65.8594ZM14.3438 43.5C10.5206 43.5 6.55899 45.1088 3.5576 49.0067C0.586333 52.8655 -1.35599 58.8467 -1.49979 67.475L1.49979 67.525C1.63724 59.2783 3.49179 54.0095 5.93459 50.837C8.34726 47.7037 11.4169 46.5 14.3438 46.5V43.5ZM-1.5 67.5V72H1.5V67.5H-1.5ZM0 73.5H4.5V70.5H0V73.5ZM4.52631 73.4998C16.8304 73.2839 23.9615 69.1264 26.8866 63.5568C29.7947 58.0195 28.2563 51.5881 24.2638 47.5956L22.1425 49.7169C25.3218 52.8963 26.4553 57.9258 24.2306 62.1619C22.0228 66.3657 16.2164 70.2942 4.47369 70.5002L4.52631 73.4998ZM24.2638 47.5956C21.8943 45.2261 18.2861 43.5 14.3438 43.5V46.5C17.4326 46.5 20.2932 47.8677 22.1425 49.7169L24.2638 47.5956ZM20.4136 59.8887C19.7081 61.5709 18.0641 63.0679 15.3131 64.1748C12.568 65.2794 8.86297 65.9316 4.33665 66.0002L4.3821 68.9998C9.13703 68.9278 13.2367 68.244 16.433 66.958C19.6234 65.6743 22.0575 63.726 23.1802 61.0488L20.4136 59.8887ZM5.7824 67.9743C5.83201 67.8255 5.84854 67.6953 5.85169 67.6724C5.85865 67.6218 5.86316 67.5748 5.86614 67.5402C5.8722 67.4697 5.87705 67.3889 5.88127 67.3107C5.88955 67.1571 5.8996 66.9296 5.91166 66.6855C5.9367 66.1783 5.97564 65.4845 6.04896 64.6652C6.19627 63.0192 6.47995 60.8971 7.05377 58.8097C7.63246 56.7046 8.47575 54.7495 9.67334 53.3451C10.8302 51.9884 12.3129 51.1406 14.3438 51.1406V48.1406C11.3121 48.1406 9.03304 49.4725 7.39062 51.3985C5.7889 53.2769 4.79528 55.7075 4.16108 58.0145C3.52201 60.3392 3.21682 62.6556 3.0609 64.3978C2.98261 65.2726 2.94135 66.0103 2.91531 66.5375C2.90182 66.8106 2.89361 67.0009 2.88562 67.1491C2.8817 67.2218 2.87891 67.2629 2.87717 67.2831C2.87624 67.2939 2.87681 67.2844 2.87971 67.2634C2.8812 67.2525 2.8846 67.2291 2.89073 67.1979C2.89566 67.1728 2.90899 67.1077 2.93635 67.0257L5.7824 67.9743ZM14.3438 51.1406C16.1096 51.1406 17.9599 51.8625 19.0487 52.9513L21.17 50.83C19.4463 49.1062 16.7967 48.1406 14.3438 48.1406V51.1406ZM19.092 52.9928C20.4657 54.2609 21.4407 57.2625 20.4 59.9221L23.1937 61.0154C24.6843 57.2062 23.4093 52.8953 21.1268 50.7884L19.092 52.9928Z" fill="#1E1E1E"/>
<defs>
<linearGradient id="paint0_linear" x1="-8.04663e-07" y1="72" x2="75.4056" y2="68.2365" gradientUnits="userSpaceOnUse">
<stop stop-color="#00F6B4"/>
<stop offset="1" stop-color="#00FF85"/>
</linearGradient>
</defs>
</svg>
