<svg width="13" height="14" viewBox="0 0 13 14" fill="none" xmlns="http://www.w3.org/2000/svg">
<path d="M12.8984 12.5332L9.82617 9.46094C9.75 9.41016 9.67383 9.35938 9.59766 9.35938H9.26758C10.0547 8.44531 10.5625 7.22656 10.5625 5.90625C10.5625 3.01172 8.17578 0.625 5.28125 0.625C2.36133 0.625 0 3.01172 0 5.90625C0 8.82617 2.36133 11.1875 5.28125 11.1875C6.60156 11.1875 7.79492 10.7051 8.73438 9.91797V10.248C8.73438 10.3242 8.75977 10.4004 8.81055 10.4766L11.8828 13.5488C12.0098 13.6758 12.2129 13.6758 12.3145 13.5488L12.8984 12.9648C13.0254 12.8633 13.0254 12.6602 12.8984 12.5332ZM5.28125 9.96875C3.02148 9.96875 1.21875 8.16602 1.21875 5.90625C1.21875 3.67188 3.02148 1.84375 5.28125 1.84375C7.51562 1.84375 9.34375 3.67188 9.34375 5.90625C9.34375 8.16602 7.51562 9.96875 5.28125 9.96875Z" fill="#898989"/>
</svg>
